<mxfile host="Electron" modified="2024-08-03T08:54:05.293Z" agent="Mozilla/5.0 (Windows NT 10.0; Win64; x64) AppleWebKit/537.36 (KHTML, like Gecko) draw.io/24.4.6 Chrome/124.0.6367.207 Electron/30.0.6 Safari/537.36" etag="siC0RRcSStdZvP8_GB0j" version="24.4.6" type="device" pages="2">
  <diagram name="UserManagement" id="edf60f1a-56cd-e834-aa8a-f176f3a09ee4">
    <mxGraphModel dx="1893" dy="1107" grid="1" gridSize="10" guides="1" tooltips="1" connect="1" arrows="1" fold="1" page="1" pageScale="1" pageWidth="1100" pageHeight="850" background="none" math="0" shadow="0">
      <root>
        <mxCell id="0" />
        <mxCell id="1" parent="0" />
        <mxCell id="60e70716793133e9-33" value="Einlogen" style="edgeStyle=orthogonalEdgeStyle;rounded=0;html=1;labelBackgroundColor=none;startSize=5;endArrow=classicThin;endFill=1;endSize=5;jettySize=auto;orthogonalLoop=1;strokeWidth=1;fontFamily=Verdana;fontSize=8;entryX=0;entryY=0.5;entryDx=0;entryDy=0;exitX=0.5;exitY=1;exitDx=0;exitDy=0;" parent="1" source="60e70716793133e9-7" target="D2tK3TR9OwjeKPHOvS4X-5" edge="1">
          <mxGeometry x="-0.8666" y="20" relative="1" as="geometry">
            <mxPoint as="offset" />
            <mxPoint x="299.9523809523812" y="250.02857142857135" as="sourcePoint" />
            <mxPoint x="350" y="380" as="targetPoint" />
          </mxGeometry>
        </mxCell>
        <mxCell id="60e70716793133e9-34" value="Registrieren" style="edgeStyle=orthogonalEdgeStyle;rounded=0;html=1;labelBackgroundColor=none;startSize=5;endArrow=classicThin;endFill=1;endSize=5;jettySize=auto;orthogonalLoop=1;strokeWidth=1;fontFamily=Verdana;fontSize=8;exitX=0.5;exitY=0;exitDx=0;exitDy=0;entryX=0;entryY=0.5;entryDx=0;entryDy=0;" parent="1" source="60e70716793133e9-7" target="mbuuGPA5xwLoq5NB57OV-7" edge="1">
          <mxGeometry x="-0.9046" y="-30" relative="1" as="geometry">
            <mxPoint as="offset" />
            <mxPoint x="390" y="170" as="targetPoint" />
          </mxGeometry>
        </mxCell>
        <mxCell id="60e70716793133e9-7" value="Einlogen oder &lt;br&gt;Registrieren?" style="rhombus;whiteSpace=wrap;html=1;rounded=0;shadow=1;labelBackgroundColor=none;strokeWidth=1;fontFamily=Verdana;fontSize=8;align=center;" parent="1" vertex="1">
          <mxGeometry x="370" y="280" width="100" height="60" as="geometry" />
        </mxCell>
        <mxCell id="mbuuGPA5xwLoq5NB57OV-6" value="Nein" style="edgeStyle=orthogonalEdgeStyle;rounded=0;orthogonalLoop=1;jettySize=auto;html=1;entryX=0.5;entryY=1;entryDx=0;entryDy=0;exitX=0.5;exitY=1;exitDx=0;exitDy=0;strokeColor=default;strokeWidth=1;align=center;verticalAlign=middle;fontFamily=Verdana;fontSize=8;fontColor=default;labelBackgroundColor=none;resizable=0;endArrow=classic;fillColor=none;gradientColor=none;" parent="1" source="60e70716793133e9-14" target="D2tK3TR9OwjeKPHOvS4X-5" edge="1">
          <mxGeometry x="-0.9634" y="12" relative="1" as="geometry">
            <Array as="points">
              <mxPoint x="798" y="540" />
              <mxPoint x="500" y="540" />
            </Array>
            <mxPoint as="offset" />
          </mxGeometry>
        </mxCell>
        <mxCell id="60e70716793133e9-14" value="Authentifizierung:&lt;br&gt;Credentials korrekt?" style="rhombus;whiteSpace=wrap;html=1;rounded=0;shadow=1;labelBackgroundColor=none;strokeWidth=1;fontFamily=Verdana;fontSize=8;align=center;strokeColor=default;verticalAlign=middle;fontColor=default;fillColor=default;" parent="1" vertex="1">
          <mxGeometry x="740" y="435" width="116.24" height="70" as="geometry" />
        </mxCell>
        <mxCell id="D2tK3TR9OwjeKPHOvS4X-1" value="&lt;pre&gt;&lt;span style=&quot;font-family: Helvetica; white-space: normal;&quot;&gt;&lt;font style=&quot;font-size: 15px;&quot;&gt;UF1 - Einlogen oder Registrieren&lt;/font&gt;&lt;/span&gt;&lt;/pre&gt;" style="text;whiteSpace=wrap;html=1;strokeColor=default;verticalAlign=top;" parent="1" vertex="1">
          <mxGeometry x="10" y="10" width="210" height="60" as="geometry" />
        </mxCell>
        <mxCell id="mbuuGPA5xwLoq5NB57OV-2" style="edgeStyle=orthogonalEdgeStyle;rounded=0;orthogonalLoop=1;jettySize=auto;html=1;entryX=0;entryY=0.5;entryDx=0;entryDy=0;" parent="1" source="D2tK3TR9OwjeKPHOvS4X-2" target="mbuuGPA5xwLoq5NB57OV-1" edge="1">
          <mxGeometry relative="1" as="geometry" />
        </mxCell>
        <mxCell id="D2tK3TR9OwjeKPHOvS4X-2" value="View: Bibliothek&lt;br&gt;(loged out)" style="strokeWidth=1;html=1;shape=mxgraph.flowchart.start_2;whiteSpace=wrap;rounded=0;shadow=1;strokeColor=default;align=center;verticalAlign=middle;fontFamily=Verdana;fontSize=8;fontColor=default;labelBackgroundColor=none;fillColor=default;" parent="1" vertex="1">
          <mxGeometry x="15" y="280" width="60" height="60" as="geometry" />
        </mxCell>
        <mxCell id="D2tK3TR9OwjeKPHOvS4X-3" value="Hier wird der Prozess zum einlogen oder registrieren eines Benutzers dargestellt." style="text;html=1;align=center;verticalAlign=middle;whiteSpace=wrap;rounded=0;strokeColor=default;fontSize=9;" parent="1" vertex="1">
          <mxGeometry x="230" y="10" width="420" height="60" as="geometry" />
        </mxCell>
        <mxCell id="D2tK3TR9OwjeKPHOvS4X-4" value="Views:&lt;div style=&quot;font-size: 8px;&quot;&gt;&lt;ul style=&quot;font-size: 8px;&quot;&gt;&lt;li style=&quot;font-size: 8px;&quot;&gt;Bibliothek (loged out)&lt;/li&gt;&lt;li style=&quot;font-size: 8px;&quot;&gt;Login&lt;/li&gt;&lt;li style=&quot;font-size: 8px;&quot;&gt;Registrieren&lt;/li&gt;&lt;/ul&gt;&lt;/div&gt;" style="text;html=1;align=left;verticalAlign=top;whiteSpace=wrap;rounded=0;textShadow=0;strokeColor=default;fontSize=8;" parent="1" vertex="1">
          <mxGeometry x="670" y="10" width="420" height="60" as="geometry" />
        </mxCell>
        <mxCell id="mbuuGPA5xwLoq5NB57OV-14" style="edgeStyle=orthogonalEdgeStyle;rounded=0;orthogonalLoop=1;jettySize=auto;html=1;entryX=0;entryY=0.5;entryDx=0;entryDy=0;strokeColor=default;strokeWidth=1;align=center;verticalAlign=middle;fontFamily=Verdana;fontSize=8;fontColor=default;labelBackgroundColor=none;resizable=0;endArrow=classic;fillColor=none;gradientColor=none;" parent="1" source="D2tK3TR9OwjeKPHOvS4X-5" target="mbuuGPA5xwLoq5NB57OV-13" edge="1">
          <mxGeometry relative="1" as="geometry" />
        </mxCell>
        <mxCell id="D2tK3TR9OwjeKPHOvS4X-5" value="Eingabe Credentials&amp;nbsp;" style="whiteSpace=wrap;html=1;rounded=0;shadow=1;labelBackgroundColor=none;strokeWidth=1;fontFamily=Verdana;fontSize=8;align=center;" parent="1" vertex="1">
          <mxGeometry x="440" y="450" width="120" height="40" as="geometry" />
        </mxCell>
        <mxCell id="mbuuGPA5xwLoq5NB57OV-9" style="edgeStyle=orthogonalEdgeStyle;rounded=0;orthogonalLoop=1;jettySize=auto;html=1;entryX=0;entryY=0.5;entryDx=0;entryDy=0;strokeColor=default;strokeWidth=1;align=center;verticalAlign=middle;fontFamily=Verdana;fontSize=8;fontColor=default;labelBackgroundColor=none;resizable=0;endArrow=classic;fillColor=none;gradientColor=none;" parent="1" source="D2tK3TR9OwjeKPHOvS4X-6" target="mbuuGPA5xwLoq5NB57OV-16" edge="1">
          <mxGeometry relative="1" as="geometry" />
        </mxCell>
        <mxCell id="D2tK3TR9OwjeKPHOvS4X-6" value="Eingabe Benutzerinformationen:&lt;br&gt;&lt;ul&gt;&lt;li style=&quot;text-align: left;&quot;&gt;Benutzername&lt;/li&gt;&lt;li style=&quot;text-align: left;&quot;&gt;Rolle&lt;/li&gt;&lt;li style=&quot;text-align: left;&quot;&gt;Email&lt;/li&gt;&lt;li style=&quot;text-align: left;&quot;&gt;Passwort&lt;/li&gt;&lt;/ul&gt;" style="whiteSpace=wrap;html=1;rounded=0;shadow=1;labelBackgroundColor=none;strokeWidth=1;fontFamily=Verdana;fontSize=8;align=center;" parent="1" vertex="1">
          <mxGeometry x="553.76" y="140" width="120" height="80" as="geometry" />
        </mxCell>
        <mxCell id="D2tK3TR9OwjeKPHOvS4X-16" style="edgeStyle=orthogonalEdgeStyle;rounded=0;orthogonalLoop=1;jettySize=auto;html=1;strokeColor=default;strokeWidth=1;align=center;verticalAlign=middle;fontFamily=Verdana;fontSize=8;fontColor=default;labelBackgroundColor=none;resizable=0;endArrow=classic;fillColor=none;gradientColor=none;entryX=0;entryY=0.5;entryDx=0;entryDy=0;entryPerimeter=0;" parent="1" source="D2tK3TR9OwjeKPHOvS4X-11" target="D2tK3TR9OwjeKPHOvS4X-17" edge="1">
          <mxGeometry relative="1" as="geometry">
            <mxPoint x="740" y="560" as="targetPoint" />
          </mxGeometry>
        </mxCell>
        <mxCell id="D2tK3TR9OwjeKPHOvS4X-20" value="Ja" style="edgeLabel;html=1;align=center;verticalAlign=middle;resizable=0;points=[];rounded=0;shadow=1;strokeColor=default;strokeWidth=1;fontFamily=Verdana;fontSize=8;fontColor=default;labelBackgroundColor=none;fillColor=default;" parent="D2tK3TR9OwjeKPHOvS4X-16" vertex="1" connectable="0">
          <mxGeometry x="-0.3351" y="-2" relative="1" as="geometry">
            <mxPoint x="-13" y="-12" as="offset" />
          </mxGeometry>
        </mxCell>
        <mxCell id="mbuuGPA5xwLoq5NB57OV-18" value="Nein" style="edgeStyle=orthogonalEdgeStyle;rounded=0;orthogonalLoop=1;jettySize=auto;html=1;entryX=0.5;entryY=1;entryDx=0;entryDy=0;strokeColor=default;strokeWidth=1;align=center;verticalAlign=middle;fontFamily=Verdana;fontSize=8;fontColor=default;labelBackgroundColor=none;resizable=0;endArrow=classic;fillColor=none;gradientColor=none;" parent="1" source="D2tK3TR9OwjeKPHOvS4X-11" target="D2tK3TR9OwjeKPHOvS4X-6" edge="1">
          <mxGeometry x="-0.9535" y="20" relative="1" as="geometry">
            <Array as="points">
              <mxPoint x="890" y="240" />
              <mxPoint x="614" y="240" />
            </Array>
            <mxPoint as="offset" />
          </mxGeometry>
        </mxCell>
        <mxCell id="D2tK3TR9OwjeKPHOvS4X-11" value="Informationen&lt;br&gt;vollstÃ¤ndig und &lt;br&gt;valide?" style="rhombus;whiteSpace=wrap;html=1;rounded=0;shadow=1;labelBackgroundColor=none;strokeWidth=1;fontFamily=Verdana;fontSize=8;align=center;" parent="1" vertex="1">
          <mxGeometry x="840" y="147.5" width="100" height="65" as="geometry" />
        </mxCell>
        <mxCell id="D2tK3TR9OwjeKPHOvS4X-17" value="View: Bibliothek&lt;div&gt;(loged in)&lt;/div&gt;" style="strokeWidth=1;html=1;shape=mxgraph.flowchart.terminator;whiteSpace=wrap;fontFamily=Verdana;fontSize=8;fontColor=default;labelBackgroundColor=none;resizable=0;rounded=0;shadow=1;strokeColor=default;align=center;verticalAlign=middle;fillColor=default;" parent="1" vertex="1">
          <mxGeometry x="980" y="150" width="100" height="60" as="geometry" />
        </mxCell>
        <mxCell id="D2tK3TR9OwjeKPHOvS4X-18" value="View: Bibliothek&lt;div&gt;(loged in)&lt;/div&gt;" style="strokeWidth=1;html=1;shape=mxgraph.flowchart.terminator;whiteSpace=wrap;fontFamily=Verdana;fontSize=8;fontColor=default;labelBackgroundColor=none;resizable=0;rounded=0;shadow=1;strokeColor=default;align=center;verticalAlign=middle;fillColor=default;" parent="1" vertex="1">
          <mxGeometry x="980" y="440" width="100" height="60" as="geometry" />
        </mxCell>
        <mxCell id="D2tK3TR9OwjeKPHOvS4X-19" value="Ja" style="edgeStyle=orthogonalEdgeStyle;rounded=0;orthogonalLoop=1;jettySize=auto;html=1;entryX=0;entryY=0.5;entryDx=0;entryDy=0;entryPerimeter=0;strokeColor=default;strokeWidth=1;align=center;verticalAlign=middle;fontFamily=Verdana;fontSize=8;fontColor=default;labelBackgroundColor=none;resizable=0;endArrow=classic;fillColor=none;gradientColor=none;" parent="1" source="60e70716793133e9-14" target="D2tK3TR9OwjeKPHOvS4X-18" edge="1">
          <mxGeometry x="-0.9392" y="10" relative="1" as="geometry">
            <mxPoint as="offset" />
          </mxGeometry>
        </mxCell>
        <mxCell id="mbuuGPA5xwLoq5NB57OV-3" style="edgeStyle=orthogonalEdgeStyle;rounded=0;orthogonalLoop=1;jettySize=auto;html=1;entryX=0;entryY=0.5;entryDx=0;entryDy=0;" parent="1" source="mbuuGPA5xwLoq5NB57OV-1" target="mbuuGPA5xwLoq5NB57OV-4" edge="1">
          <mxGeometry relative="1" as="geometry">
            <mxPoint x="240" y="310" as="targetPoint" />
          </mxGeometry>
        </mxCell>
        <mxCell id="mbuuGPA5xwLoq5NB57OV-1" value="Klick [Login]" style="whiteSpace=wrap;html=1;rounded=0;shadow=1;labelBackgroundColor=none;strokeWidth=1;fontFamily=Verdana;fontSize=8;align=center;" parent="1" vertex="1">
          <mxGeometry x="100" y="290" width="120" height="40" as="geometry" />
        </mxCell>
        <mxCell id="mbuuGPA5xwLoq5NB57OV-5" style="edgeStyle=orthogonalEdgeStyle;rounded=0;orthogonalLoop=1;jettySize=auto;html=1;entryX=0;entryY=0.5;entryDx=0;entryDy=0;" parent="1" source="mbuuGPA5xwLoq5NB57OV-4" target="60e70716793133e9-7" edge="1">
          <mxGeometry relative="1" as="geometry" />
        </mxCell>
        <mxCell id="mbuuGPA5xwLoq5NB57OV-4" value="View: Login" style="ellipse;whiteSpace=wrap;html=1;rounded=0;shadow=1;strokeColor=default;strokeWidth=1;align=center;verticalAlign=middle;fontFamily=Verdana;fontSize=8;fontColor=default;labelBackgroundColor=none;fillColor=default;" parent="1" vertex="1">
          <mxGeometry x="250" y="285" width="90" height="50" as="geometry" />
        </mxCell>
        <mxCell id="mbuuGPA5xwLoq5NB57OV-8" style="edgeStyle=orthogonalEdgeStyle;rounded=0;orthogonalLoop=1;jettySize=auto;html=1;entryX=0;entryY=0.5;entryDx=0;entryDy=0;strokeColor=default;strokeWidth=1;align=center;verticalAlign=middle;fontFamily=Verdana;fontSize=8;fontColor=default;labelBackgroundColor=none;resizable=0;endArrow=classic;fillColor=none;gradientColor=none;" parent="1" source="mbuuGPA5xwLoq5NB57OV-7" target="D2tK3TR9OwjeKPHOvS4X-6" edge="1">
          <mxGeometry relative="1" as="geometry" />
        </mxCell>
        <mxCell id="mbuuGPA5xwLoq5NB57OV-7" value="View: Registrieren" style="ellipse;whiteSpace=wrap;html=1;rounded=0;shadow=1;strokeColor=default;strokeWidth=1;align=center;verticalAlign=middle;fontFamily=Verdana;fontSize=8;fontColor=default;labelBackgroundColor=none;fillColor=default;" parent="1" vertex="1">
          <mxGeometry x="440" y="155" width="90" height="50" as="geometry" />
        </mxCell>
        <mxCell id="mbuuGPA5xwLoq5NB57OV-15" style="edgeStyle=orthogonalEdgeStyle;rounded=0;orthogonalLoop=1;jettySize=auto;html=1;strokeColor=default;strokeWidth=1;align=center;verticalAlign=middle;fontFamily=Verdana;fontSize=8;fontColor=default;labelBackgroundColor=none;resizable=0;endArrow=classic;fillColor=none;gradientColor=none;" parent="1" source="mbuuGPA5xwLoq5NB57OV-13" target="60e70716793133e9-14" edge="1">
          <mxGeometry relative="1" as="geometry" />
        </mxCell>
        <mxCell id="mbuuGPA5xwLoq5NB57OV-13" value="Klick [Login]&amp;nbsp;" style="whiteSpace=wrap;html=1;rounded=0;shadow=1;labelBackgroundColor=none;strokeWidth=1;fontFamily=Verdana;fontSize=8;align=center;" parent="1" vertex="1">
          <mxGeometry x="590" y="450" width="120" height="40" as="geometry" />
        </mxCell>
        <mxCell id="mbuuGPA5xwLoq5NB57OV-17" style="edgeStyle=orthogonalEdgeStyle;rounded=0;orthogonalLoop=1;jettySize=auto;html=1;strokeColor=default;strokeWidth=1;align=center;verticalAlign=middle;fontFamily=Verdana;fontSize=8;fontColor=default;labelBackgroundColor=none;resizable=0;endArrow=classic;fillColor=none;gradientColor=none;" parent="1" source="mbuuGPA5xwLoq5NB57OV-16" target="D2tK3TR9OwjeKPHOvS4X-11" edge="1">
          <mxGeometry relative="1" as="geometry" />
        </mxCell>
        <mxCell id="mbuuGPA5xwLoq5NB57OV-16" value="Klick [Registrieren]&amp;nbsp;" style="whiteSpace=wrap;html=1;rounded=0;shadow=1;labelBackgroundColor=none;strokeWidth=1;fontFamily=Verdana;fontSize=8;align=center;" parent="1" vertex="1">
          <mxGeometry x="700" y="160" width="120" height="40" as="geometry" />
        </mxCell>
        <mxCell id="46SvIgkUG7cXRvw6_ES7-11" style="edgeStyle=orthogonalEdgeStyle;rounded=0;orthogonalLoop=1;jettySize=auto;html=1;entryX=0;entryY=0.5;entryDx=0;entryDy=0;" edge="1" parent="1" source="mbuuGPA5xwLoq5NB57OV-140" target="46SvIgkUG7cXRvw6_ES7-10">
          <mxGeometry relative="1" as="geometry" />
        </mxCell>
        <mxCell id="mbuuGPA5xwLoq5NB57OV-140" value="Klick [Profildaten Ã¤ndern]" style="whiteSpace=wrap;html=1;rounded=0;shadow=1;labelBackgroundColor=none;strokeWidth=1;fontFamily=Verdana;fontSize=8;align=center;" parent="1" vertex="1">
          <mxGeometry x="350.02" y="1140" width="120" height="40" as="geometry" />
        </mxCell>
        <mxCell id="mbuuGPA5xwLoq5NB57OV-142" value="Klick [Ãnderung speichern]" style="whiteSpace=wrap;html=1;rounded=0;shadow=1;labelBackgroundColor=none;strokeWidth=1;fontFamily=Verdana;fontSize=8;align=center;" parent="1" vertex="1">
          <mxGeometry x="900" y="1080" width="120" height="40" as="geometry" />
        </mxCell>
        <mxCell id="Pk-tPmqMgojB2sV6dSQ5-8" style="edgeStyle=orthogonalEdgeStyle;rounded=0;orthogonalLoop=1;jettySize=auto;html=1;entryX=1;entryY=0.5;entryDx=0;entryDy=0;fontFamily=Verdana;fontSize=8;fontColor=default;labelBackgroundColor=none;resizable=0;" edge="1" parent="1" source="mbuuGPA5xwLoq5NB57OV-147" target="Pk-tPmqMgojB2sV6dSQ5-6">
          <mxGeometry relative="1" as="geometry" />
        </mxCell>
        <mxCell id="mbuuGPA5xwLoq5NB57OV-147" value="Klick [Profil lÃ¶schen]" style="whiteSpace=wrap;html=1;rounded=0;shadow=1;labelBackgroundColor=none;strokeWidth=1;fontFamily=Verdana;fontSize=8;align=center;" parent="1" vertex="1">
          <mxGeometry x="350.02" y="1290" width="120" height="40" as="geometry" />
        </mxCell>
        <mxCell id="mbuuGPA5xwLoq5NB57OV-161" value="Klick [Abbrechen]" style="whiteSpace=wrap;html=1;rounded=0;shadow=1;labelBackgroundColor=none;strokeWidth=1;fontFamily=Verdana;fontSize=8;align=center;" parent="1" vertex="1">
          <mxGeometry x="900" y="1140" width="120" height="40" as="geometry" />
        </mxCell>
        <mxCell id="mbuuGPA5xwLoq5NB57OV-170" value="View: Bibliothek&lt;br&gt;(loged out)" style="strokeWidth=1;html=1;shape=mxgraph.flowchart.terminator;whiteSpace=wrap;fontFamily=Verdana;fontSize=8;fontColor=default;labelBackgroundColor=none;resizable=0;rounded=0;shadow=1;strokeColor=default;align=center;verticalAlign=middle;fillColor=default;" parent="1" vertex="1">
          <mxGeometry x="990" y="1390" width="100" height="60" as="geometry" />
        </mxCell>
        <mxCell id="mbuuGPA5xwLoq5NB57OV-174" value="Anzeige der Profildaten" style="whiteSpace=wrap;html=1;rounded=0;shadow=1;labelBackgroundColor=none;strokeWidth=1;fontFamily=Verdana;fontSize=8;align=center;" parent="1" vertex="1">
          <mxGeometry x="350.02" y="980" width="120" height="40" as="geometry" />
        </mxCell>
        <mxCell id="46SvIgkUG7cXRvw6_ES7-6" style="edgeStyle=orthogonalEdgeStyle;rounded=0;orthogonalLoop=1;jettySize=auto;html=1;entryX=0.5;entryY=0;entryDx=0;entryDy=0;" edge="1" parent="1" source="mbuuGPA5xwLoq5NB57OV-214" target="46SvIgkUG7cXRvw6_ES7-4">
          <mxGeometry relative="1" as="geometry" />
        </mxCell>
        <mxCell id="mbuuGPA5xwLoq5NB57OV-214" value="View: Profil - Profildaten" style="strokeWidth=1;html=1;shape=mxgraph.flowchart.start_2;whiteSpace=wrap;rounded=0;shadow=1;strokeColor=default;align=center;verticalAlign=middle;fontFamily=Verdana;fontSize=8;fontColor=default;labelBackgroundColor=none;fillColor=default;" parent="1" vertex="1">
          <mxGeometry x="39.99999999999999" y="1040" width="60" height="60" as="geometry" />
        </mxCell>
        <mxCell id="mbuuGPA5xwLoq5NB57OV-215" style="edgeStyle=orthogonalEdgeStyle;rounded=0;orthogonalLoop=1;jettySize=auto;html=1;shadow=1;strokeColor=default;strokeWidth=1;align=center;verticalAlign=middle;fontFamily=Verdana;fontSize=8;fontColor=default;labelBackgroundColor=none;endArrow=classic;fillColor=default;exitX=0.5;exitY=1;exitDx=0;exitDy=0;entryX=0;entryY=0.5;entryDx=0;entryDy=0;" parent="1" source="mbuuGPA5xwLoq5NB57OV-221" edge="1" target="mbuuGPA5xwLoq5NB57OV-147">
          <mxGeometry relative="1" as="geometry">
            <mxPoint x="320" y="1320" as="targetPoint" />
            <mxPoint x="220" y="1210" as="sourcePoint" />
            <Array as="points">
              <mxPoint x="220" y="1310" />
            </Array>
          </mxGeometry>
        </mxCell>
        <mxCell id="mbuuGPA5xwLoq5NB57OV-216" value="&lt;span style=&quot;color: rgba(0, 0, 0, 0); font-family: monospace; font-size: 0px; text-align: start;&quot;&gt;%3CmxGraphModel%3E%3Croot%3E%3CmxCell%20id%3D%220%22%2F%3E%3CmxCell%20id%3D%221%22%20parent%3D%220%22%2F%3E%3CmxCell%20id%3D%222%22%20value%3D%22Fragenpool%20%26lt%3Bbr%26gt%3Bhinzuf%C3%BCgen%22%20style%3D%22edgeLabel%3Bhtml%3D1%3Balign%3Dcenter%3BverticalAlign%3Dmiddle%3Bresizable%3D0%3Bpoints%3D%5B%5D%3BfontFamily%3DVerdana%3BfontSize%3D8%3BfontColor%3Ddefault%3BlabelBackgroundColor%3Dnone%3B%22%20vertex%3D%221%22%20connectable%3D%220%22%20parent%3D%221%22%3E%3CmxGeometry%20x%3D%22140%22%20y%3D%222790%22%20as%3D%22geometry%22%2F%3E%3C%2FmxCell%3E%3C%2Froot%3E%3C%2FmxGraphModel%3EFra&lt;/span&gt;" style="edgeLabel;html=1;align=center;verticalAlign=middle;resizable=0;points=[];fontFamily=Verdana;fontSize=8;fontColor=default;labelBackgroundColor=none;" parent="mbuuGPA5xwLoq5NB57OV-215" vertex="1" connectable="0">
          <mxGeometry x="-0.6293" y="-3" relative="1" as="geometry">
            <mxPoint as="offset" />
          </mxGeometry>
        </mxCell>
        <mxCell id="mbuuGPA5xwLoq5NB57OV-217" value="Profil&lt;br&gt;&amp;nbsp;lÃ¶schen" style="edgeLabel;html=1;align=center;verticalAlign=middle;resizable=0;points=[];fontFamily=Verdana;fontSize=8;fontColor=default;labelBackgroundColor=none;" parent="mbuuGPA5xwLoq5NB57OV-215" vertex="1" connectable="0">
          <mxGeometry x="-0.3366" y="1" relative="1" as="geometry">
            <mxPoint x="-31" y="-63" as="offset" />
          </mxGeometry>
        </mxCell>
        <mxCell id="mbuuGPA5xwLoq5NB57OV-218" style="edgeStyle=orthogonalEdgeStyle;rounded=0;orthogonalLoop=1;jettySize=auto;html=1;entryX=0;entryY=0.5;entryDx=0;entryDy=0;strokeColor=default;strokeWidth=1;align=center;verticalAlign=middle;fontFamily=Verdana;fontSize=8;fontColor=default;labelBackgroundColor=none;resizable=0;endArrow=classic;fillColor=none;gradientColor=none;exitX=0.5;exitY=0;exitDx=0;exitDy=0;" parent="1" source="mbuuGPA5xwLoq5NB57OV-221" edge="1" target="mbuuGPA5xwLoq5NB57OV-174">
          <mxGeometry relative="1" as="geometry">
            <mxPoint x="390" y="970" as="targetPoint" />
            <Array as="points">
              <mxPoint x="220" y="1000" />
            </Array>
          </mxGeometry>
        </mxCell>
        <mxCell id="mbuuGPA5xwLoq5NB57OV-219" value="Profildaten &lt;br&gt;anzeigen" style="edgeLabel;html=1;align=center;verticalAlign=middle;resizable=0;points=[];fontFamily=Verdana;fontSize=8;fontColor=default;labelBackgroundColor=none;" parent="mbuuGPA5xwLoq5NB57OV-218" vertex="1" connectable="0">
          <mxGeometry x="-0.4368" y="1" relative="1" as="geometry">
            <mxPoint x="-29" y="50" as="offset" />
          </mxGeometry>
        </mxCell>
        <mxCell id="mbuuGPA5xwLoq5NB57OV-220" value="Profildaten Ã¤ndern" style="edgeStyle=orthogonalEdgeStyle;rounded=0;orthogonalLoop=1;jettySize=auto;html=1;strokeColor=default;strokeWidth=1;align=center;verticalAlign=middle;fontFamily=Verdana;fontSize=8;fontColor=default;labelBackgroundColor=none;resizable=0;endArrow=classic;fillColor=none;gradientColor=none;entryX=0;entryY=0.5;entryDx=0;entryDy=0;exitX=1;exitY=0.5;exitDx=0;exitDy=0;" parent="1" source="mbuuGPA5xwLoq5NB57OV-221" edge="1" target="mbuuGPA5xwLoq5NB57OV-140">
          <mxGeometry x="-0.0002" y="10" relative="1" as="geometry">
            <mxPoint x="390" y="1150" as="targetPoint" />
            <mxPoint as="offset" />
            <mxPoint x="270" y="1220" as="sourcePoint" />
            <Array as="points" />
          </mxGeometry>
        </mxCell>
        <mxCell id="mbuuGPA5xwLoq5NB57OV-221" value="Absicht" style="rhombus;whiteSpace=wrap;html=1;rounded=0;shadow=1;labelBackgroundColor=none;strokeWidth=1;fontFamily=Verdana;fontSize=8;align=center;" parent="1" vertex="1">
          <mxGeometry x="170" y="1130" width="100" height="60" as="geometry" />
        </mxCell>
        <mxCell id="46SvIgkUG7cXRvw6_ES7-1" value="&lt;pre&gt;&lt;span style=&quot;font-family: Helvetica; white-space: normal;&quot;&gt;&lt;font style=&quot;font-size: 15px;&quot;&gt;UF7 - Profildaten anzeigen &amp;amp; Ã¤ndern&lt;/font&gt;&lt;/span&gt;&lt;/pre&gt;" style="text;whiteSpace=wrap;html=1;strokeColor=default;verticalAlign=top;" vertex="1" parent="1">
          <mxGeometry x="10" y="860" width="210" height="60" as="geometry" />
        </mxCell>
        <mxCell id="46SvIgkUG7cXRvw6_ES7-2" value="Hier wird der Prozess zum einlogen oder registrieren eines Benutzers dargestellt." style="text;html=1;align=center;verticalAlign=middle;whiteSpace=wrap;rounded=0;strokeColor=default;fontSize=9;" vertex="1" parent="1">
          <mxGeometry x="230" y="860" width="420" height="60" as="geometry" />
        </mxCell>
        <mxCell id="46SvIgkUG7cXRvw6_ES7-3" value="Views:&lt;div style=&quot;font-size: 8px;&quot;&gt;&lt;ul style=&quot;font-size: 8px;&quot;&gt;&lt;li style=&quot;font-size: 8px;&quot;&gt;Bibliothek (loged out)&lt;/li&gt;&lt;li style=&quot;font-size: 8px;&quot;&gt;Login&lt;/li&gt;&lt;li style=&quot;font-size: 8px;&quot;&gt;Registrieren&lt;/li&gt;&lt;/ul&gt;&lt;/div&gt;" style="text;html=1;align=left;verticalAlign=top;whiteSpace=wrap;rounded=0;textShadow=0;strokeColor=default;fontSize=8;" vertex="1" parent="1">
          <mxGeometry x="670" y="860" width="420" height="60" as="geometry" />
        </mxCell>
        <mxCell id="46SvIgkUG7cXRvw6_ES7-7" style="edgeStyle=orthogonalEdgeStyle;rounded=0;orthogonalLoop=1;jettySize=auto;html=1;entryX=0;entryY=0.5;entryDx=0;entryDy=0;" edge="1" parent="1" source="46SvIgkUG7cXRvw6_ES7-4" target="mbuuGPA5xwLoq5NB57OV-221">
          <mxGeometry relative="1" as="geometry" />
        </mxCell>
        <mxCell id="46SvIgkUG7cXRvw6_ES7-4" value="Klick [Profildaten]" style="whiteSpace=wrap;html=1;rounded=0;shadow=1;labelBackgroundColor=none;strokeWidth=1;fontFamily=Verdana;fontSize=8;align=center;" vertex="1" parent="1">
          <mxGeometry x="10" y="1140" width="120" height="40" as="geometry" />
        </mxCell>
        <mxCell id="46SvIgkUG7cXRvw6_ES7-13" style="edgeStyle=orthogonalEdgeStyle;rounded=0;orthogonalLoop=1;jettySize=auto;html=1;entryX=0;entryY=0.5;entryDx=0;entryDy=0;" edge="1" parent="1" source="46SvIgkUG7cXRvw6_ES7-10" target="46SvIgkUG7cXRvw6_ES7-12">
          <mxGeometry relative="1" as="geometry" />
        </mxCell>
        <mxCell id="46SvIgkUG7cXRvw6_ES7-10" value="View: Registrieren - Profildaten Ã¤ndern" style="ellipse;whiteSpace=wrap;html=1;rounded=0;shadow=1;strokeColor=default;strokeWidth=1;align=center;verticalAlign=middle;fontFamily=Verdana;fontSize=8;fontColor=default;labelBackgroundColor=none;fillColor=default;" vertex="1" parent="1">
          <mxGeometry x="500" y="1135" width="90" height="50" as="geometry" />
        </mxCell>
        <mxCell id="46SvIgkUG7cXRvw6_ES7-15" style="edgeStyle=orthogonalEdgeStyle;rounded=0;orthogonalLoop=1;jettySize=auto;html=1;entryX=0;entryY=0.5;entryDx=0;entryDy=0;" edge="1" parent="1" source="46SvIgkUG7cXRvw6_ES7-12" target="46SvIgkUG7cXRvw6_ES7-14">
          <mxGeometry relative="1" as="geometry" />
        </mxCell>
        <mxCell id="46SvIgkUG7cXRvw6_ES7-12" value="Eingabe Benutzerinformationen:&lt;br&gt;&lt;ul&gt;&lt;li style=&quot;text-align: left;&quot;&gt;Benutzername&lt;/li&gt;&lt;li style=&quot;text-align: left;&quot;&gt;Rolle&lt;/li&gt;&lt;li style=&quot;text-align: left;&quot;&gt;Email&lt;/li&gt;&lt;li style=&quot;text-align: left;&quot;&gt;Passwort&lt;/li&gt;&lt;/ul&gt;" style="whiteSpace=wrap;html=1;rounded=0;shadow=1;labelBackgroundColor=none;strokeWidth=1;fontFamily=Verdana;fontSize=8;align=center;" vertex="1" parent="1">
          <mxGeometry x="620" y="1120" width="120" height="80" as="geometry" />
        </mxCell>
        <mxCell id="46SvIgkUG7cXRvw6_ES7-16" style="edgeStyle=orthogonalEdgeStyle;rounded=0;orthogonalLoop=1;jettySize=auto;html=1;entryX=0;entryY=0.5;entryDx=0;entryDy=0;" edge="1" parent="1" source="46SvIgkUG7cXRvw6_ES7-14" target="mbuuGPA5xwLoq5NB57OV-142">
          <mxGeometry relative="1" as="geometry">
            <Array as="points">
              <mxPoint x="820" y="1100" />
            </Array>
          </mxGeometry>
        </mxCell>
        <mxCell id="46SvIgkUG7cXRvw6_ES7-17" value="Ja" style="edgeLabel;html=1;align=center;verticalAlign=middle;resizable=0;points=[];fontFamily=Verdana;fontSize=8;fontColor=default;labelBackgroundColor=none;fillColor=none;gradientColor=none;" vertex="1" connectable="0" parent="46SvIgkUG7cXRvw6_ES7-16">
          <mxGeometry x="0.046" y="2" relative="1" as="geometry">
            <mxPoint x="-20" y="22" as="offset" />
          </mxGeometry>
        </mxCell>
        <mxCell id="46SvIgkUG7cXRvw6_ES7-18" value="Nein" style="edgeStyle=orthogonalEdgeStyle;rounded=0;orthogonalLoop=1;jettySize=auto;html=1;entryX=0;entryY=0.5;entryDx=0;entryDy=0;fontFamily=Verdana;fontSize=8;fontColor=default;labelBackgroundColor=none;resizable=0;" edge="1" parent="1" source="46SvIgkUG7cXRvw6_ES7-14" target="mbuuGPA5xwLoq5NB57OV-161">
          <mxGeometry x="0.2" y="-10" relative="1" as="geometry">
            <mxPoint as="offset" />
          </mxGeometry>
        </mxCell>
        <mxCell id="46SvIgkUG7cXRvw6_ES7-14" value="Ãnderung&lt;br&gt;speichern?" style="rhombus;whiteSpace=wrap;html=1;rounded=0;shadow=1;labelBackgroundColor=none;strokeWidth=1;fontFamily=Verdana;fontSize=8;align=center;" vertex="1" parent="1">
          <mxGeometry x="770" y="1130" width="100" height="60" as="geometry" />
        </mxCell>
        <mxCell id="Pk-tPmqMgojB2sV6dSQ5-1" value="Klick [LÃ¶schen bestÃ¤tigen]" style="whiteSpace=wrap;html=1;rounded=0;shadow=1;labelBackgroundColor=none;strokeWidth=1;fontFamily=Verdana;fontSize=8;align=center;direction=west;" vertex="1" parent="1">
          <mxGeometry x="650" y="1290" width="120" height="40" as="geometry" />
        </mxCell>
        <mxCell id="Pk-tPmqMgojB2sV6dSQ5-2" value="Ja" style="edgeStyle=orthogonalEdgeStyle;rounded=0;orthogonalLoop=1;jettySize=auto;html=1;entryX=1;entryY=0.5;entryDx=0;entryDy=0;strokeColor=default;strokeWidth=1;align=center;verticalAlign=middle;fontFamily=Verdana;fontSize=8;fontColor=default;labelBackgroundColor=none;resizable=0;endArrow=classic;fillColor=none;gradientColor=none;" edge="1" parent="1" source="Pk-tPmqMgojB2sV6dSQ5-3" target="Pk-tPmqMgojB2sV6dSQ5-4">
          <mxGeometry x="0.3044" y="10" relative="1" as="geometry">
            <mxPoint as="offset" />
          </mxGeometry>
        </mxCell>
        <mxCell id="Pk-tPmqMgojB2sV6dSQ5-14" value="Nein" style="edgeStyle=orthogonalEdgeStyle;rounded=0;orthogonalLoop=1;jettySize=auto;html=1;fontFamily=Verdana;fontSize=8;fontColor=default;labelBackgroundColor=none;resizable=0;" edge="1" parent="1" source="Pk-tPmqMgojB2sV6dSQ5-3">
          <mxGeometry x="-0.972" y="-16" relative="1" as="geometry">
            <mxPoint x="1040" y="1030" as="targetPoint" />
            <Array as="points">
              <mxPoint x="834" y="1250" />
              <mxPoint x="1041" y="1250" />
              <mxPoint x="1041" y="1030" />
            </Array>
            <mxPoint as="offset" />
          </mxGeometry>
        </mxCell>
        <mxCell id="Pk-tPmqMgojB2sV6dSQ5-3" value="bestÃ¤tigt?" style="strokeWidth=1;html=1;shape=mxgraph.flowchart.decision;whiteSpace=wrap;rounded=0;shadow=1;strokeColor=default;align=center;verticalAlign=middle;fontFamily=Verdana;fontSize=8;fontColor=default;labelBackgroundColor=none;fillColor=default;" vertex="1" parent="1">
          <mxGeometry x="800.02" y="1286.5" width="67.51" height="47" as="geometry" />
        </mxCell>
        <mxCell id="Pk-tPmqMgojB2sV6dSQ5-4" value="Frage lÃ¶schen&lt;span style=&quot;color: rgba(0, 0, 0, 0); font-family: monospace; font-size: 0px; text-align: start; text-wrap: nowrap;&quot;&gt;%3CmxGraphModel%3E%3Croot%3E%3CmxCell%20id%3D%220%22%2F%3E%3CmxCell%20id%3D%221%22%20parent%3D%220%22%2F%3E%3CmxCell%20id%3D%222%22%20value%3D%22L%C3%B6schen%20best%C3%A4tigen%22%20style%3D%22whiteSpace%3Dwrap%3Bhtml%3D1%3Brounded%3D0%3Bshadow%3D1%3BlabelBackgroundColor%3Dnone%3BstrokeWidth%3D1%3BfontFamily%3DVerdana%3BfontSize%3D8%3Balign%3Dcenter%3Bdirection%3Dwest%3B%22%20vertex%3D%221%22%20parent%3D%221%22%3E%3CmxGeometry%20x%3D%22890%22%20y%3D%222180%22%20width%3D%22120%22%20height%3D%2240%22%20as%3D%22geometry%22%2F%3E%3C%2FmxCell%3E%3C%2Froot%3E%3C%2FmxGraphModel%3E&lt;/span&gt;" style="whiteSpace=wrap;html=1;rounded=0;shadow=1;labelBackgroundColor=none;strokeWidth=1;fontFamily=Verdana;fontSize=8;align=center;direction=west;" vertex="1" parent="1">
          <mxGeometry x="900" y="1290" width="120" height="40" as="geometry" />
        </mxCell>
        <mxCell id="Pk-tPmqMgojB2sV6dSQ5-5" style="edgeStyle=orthogonalEdgeStyle;rounded=0;orthogonalLoop=1;jettySize=auto;html=1;entryX=1;entryY=0.5;entryDx=0;entryDy=0;strokeColor=default;strokeWidth=1;align=center;verticalAlign=middle;fontFamily=Verdana;fontSize=8;fontColor=default;labelBackgroundColor=none;resizable=0;endArrow=classic;fillColor=none;gradientColor=none;" edge="1" parent="1" source="Pk-tPmqMgojB2sV6dSQ5-6" target="Pk-tPmqMgojB2sV6dSQ5-1">
          <mxGeometry relative="1" as="geometry" />
        </mxCell>
        <mxCell id="Pk-tPmqMgojB2sV6dSQ5-6" value="Anzeige LÃ¶schhinweis" style="whiteSpace=wrap;html=1;rounded=0;shadow=1;labelBackgroundColor=none;strokeWidth=1;fontFamily=Verdana;fontSize=8;align=center;direction=west;" vertex="1" parent="1">
          <mxGeometry x="500" y="1290" width="120" height="40" as="geometry" />
        </mxCell>
        <mxCell id="Pk-tPmqMgojB2sV6dSQ5-7" style="edgeStyle=orthogonalEdgeStyle;rounded=0;orthogonalLoop=1;jettySize=auto;html=1;entryX=0;entryY=0.5;entryDx=0;entryDy=0;entryPerimeter=0;strokeColor=default;strokeWidth=1;align=center;verticalAlign=middle;fontFamily=Verdana;fontSize=8;fontColor=default;labelBackgroundColor=none;resizable=0;endArrow=classic;fillColor=none;gradientColor=none;" edge="1" parent="1" source="Pk-tPmqMgojB2sV6dSQ5-1" target="Pk-tPmqMgojB2sV6dSQ5-3">
          <mxGeometry relative="1" as="geometry" />
        </mxCell>
        <mxCell id="Pk-tPmqMgojB2sV6dSQ5-10" value="View: Profil - Profildaten" style="strokeWidth=1;html=1;shape=mxgraph.flowchart.terminator;whiteSpace=wrap;fontFamily=Verdana;fontSize=8;fontColor=default;labelBackgroundColor=none;resizable=0;rounded=0;shadow=1;strokeColor=default;align=center;verticalAlign=middle;fillColor=default;" vertex="1" parent="1">
          <mxGeometry x="990" y="970" width="100" height="60" as="geometry" />
        </mxCell>
        <mxCell id="Pk-tPmqMgojB2sV6dSQ5-11" style="edgeStyle=orthogonalEdgeStyle;rounded=0;orthogonalLoop=1;jettySize=auto;html=1;entryX=0;entryY=0.5;entryDx=0;entryDy=0;entryPerimeter=0;fontFamily=Verdana;fontSize=8;fontColor=default;labelBackgroundColor=none;resizable=0;" edge="1" parent="1" source="mbuuGPA5xwLoq5NB57OV-174" target="Pk-tPmqMgojB2sV6dSQ5-10">
          <mxGeometry relative="1" as="geometry" />
        </mxCell>
        <mxCell id="Pk-tPmqMgojB2sV6dSQ5-12" style="edgeStyle=orthogonalEdgeStyle;rounded=0;orthogonalLoop=1;jettySize=auto;html=1;entryX=0.5;entryY=1;entryDx=0;entryDy=0;entryPerimeter=0;fontFamily=Verdana;fontSize=8;fontColor=default;labelBackgroundColor=none;resizable=0;" edge="1" parent="1" source="mbuuGPA5xwLoq5NB57OV-142" target="Pk-tPmqMgojB2sV6dSQ5-10">
          <mxGeometry relative="1" as="geometry">
            <Array as="points">
              <mxPoint x="1040" y="1100" />
            </Array>
          </mxGeometry>
        </mxCell>
        <mxCell id="Pk-tPmqMgojB2sV6dSQ5-13" style="edgeStyle=orthogonalEdgeStyle;rounded=0;orthogonalLoop=1;jettySize=auto;html=1;entryX=0.5;entryY=1;entryDx=0;entryDy=0;entryPerimeter=0;fontFamily=Verdana;fontSize=8;fontColor=default;labelBackgroundColor=none;resizable=0;" edge="1" parent="1" source="mbuuGPA5xwLoq5NB57OV-161" target="Pk-tPmqMgojB2sV6dSQ5-10">
          <mxGeometry relative="1" as="geometry">
            <Array as="points">
              <mxPoint x="1040" y="1160" />
            </Array>
          </mxGeometry>
        </mxCell>
        <mxCell id="Pk-tPmqMgojB2sV6dSQ5-15" style="edgeStyle=orthogonalEdgeStyle;rounded=0;orthogonalLoop=1;jettySize=auto;html=1;entryX=0.5;entryY=0;entryDx=0;entryDy=0;entryPerimeter=0;fontFamily=Verdana;fontSize=8;fontColor=default;labelBackgroundColor=none;resizable=0;" edge="1" parent="1" source="Pk-tPmqMgojB2sV6dSQ5-4" target="mbuuGPA5xwLoq5NB57OV-170">
          <mxGeometry relative="1" as="geometry">
            <Array as="points">
              <mxPoint x="1040" y="1310" />
            </Array>
          </mxGeometry>
        </mxCell>
      </root>
    </mxGraphModel>
  </diagram>
  <diagram id="VEPMxQa9JXe1bwkRHsLW" name="Library">
    <mxGraphModel dx="1420" dy="830" grid="1" gridSize="10" guides="1" tooltips="1" connect="1" arrows="1" fold="1" page="1" pageScale="1" pageWidth="1100" pageHeight="850" math="0" shadow="0">
      <root>
        <mxCell id="0" />
        <mxCell id="1" parent="0" />
        <mxCell id="8hQfOiwvWAjv1FpIQdZN-1" value="&lt;pre&gt;&lt;span style=&quot;font-family: Helvetica; white-space: normal;&quot;&gt;&lt;font style=&quot;font-size: 15px;&quot;&gt;UF2 - Bibliothek (loged out)&lt;/font&gt;&lt;/span&gt;&lt;/pre&gt;" style="text;whiteSpace=wrap;html=1;strokeColor=default;verticalAlign=top;" vertex="1" parent="1">
          <mxGeometry x="10" y="10" width="210" height="40" as="geometry" />
        </mxCell>
        <mxCell id="8hQfOiwvWAjv1FpIQdZN-2" value="Die Landing Page ist die Bibliothek&amp;nbsp;" style="text;html=1;align=center;verticalAlign=middle;whiteSpace=wrap;rounded=0;strokeColor=default;fontSize=9;" vertex="1" parent="1">
          <mxGeometry x="230" y="10" width="420" height="60" as="geometry" />
        </mxCell>
        <mxCell id="8hQfOiwvWAjv1FpIQdZN-3" value="Views:&lt;div style=&quot;font-size: 8px;&quot;&gt;&lt;ul style=&quot;font-size: 8px;&quot;&gt;&lt;li style=&quot;font-size: 8px;&quot;&gt;Bibliothek&amp;nbsp; (loged out)&lt;/li&gt;&lt;/ul&gt;&lt;/div&gt;" style="text;html=1;align=left;verticalAlign=top;whiteSpace=wrap;rounded=0;textShadow=0;strokeColor=default;fontSize=8;" vertex="1" parent="1">
          <mxGeometry x="670" y="10" width="420" height="60" as="geometry" />
        </mxCell>
        <mxCell id="8hQfOiwvWAjv1FpIQdZN-4" value="&lt;pre&gt;&lt;span style=&quot;font-family: Helvetica; white-space: normal;&quot;&gt;&lt;font style=&quot;font-size: 15px;&quot;&gt;UF3 - (as default) Bibliothek ansehen&lt;/font&gt;&lt;/span&gt;&lt;/pre&gt;" style="text;whiteSpace=wrap;html=1;strokeColor=default;verticalAlign=middle;labelPosition=center;verticalLabelPosition=middle;align=center;" vertex="1" parent="1">
          <mxGeometry x="10" y="860" width="210" height="60" as="geometry" />
        </mxCell>
        <mxCell id="8hQfOiwvWAjv1FpIQdZN-5" value="Die Landing Page ist die Bibliothek&amp;nbsp;" style="text;html=1;align=center;verticalAlign=middle;whiteSpace=wrap;rounded=0;strokeColor=default;fontSize=9;" vertex="1" parent="1">
          <mxGeometry x="230" y="860" width="420" height="60" as="geometry" />
        </mxCell>
        <mxCell id="8hQfOiwvWAjv1FpIQdZN-6" value="Views:&lt;div style=&quot;font-size: 8px;&quot;&gt;&lt;ul style=&quot;font-size: 8px;&quot;&gt;&lt;li style=&quot;font-size: 8px;&quot;&gt;Bibliothek&lt;/li&gt;&lt;/ul&gt;&lt;/div&gt;" style="text;html=1;align=left;verticalAlign=top;whiteSpace=wrap;rounded=0;textShadow=0;strokeColor=default;fontSize=8;" vertex="1" parent="1">
          <mxGeometry x="670" y="860" width="420" height="60" as="geometry" />
        </mxCell>
        <mxCell id="8hQfOiwvWAjv1FpIQdZN-7" style="edgeStyle=orthogonalEdgeStyle;rounded=0;orthogonalLoop=1;jettySize=auto;html=1;entryX=0;entryY=0.5;entryDx=0;entryDy=0;strokeColor=default;strokeWidth=1;align=center;verticalAlign=middle;fontFamily=Verdana;fontSize=8;fontColor=default;labelBackgroundColor=none;resizable=0;endArrow=classic;fillColor=none;gradientColor=none;" edge="1" parent="1" source="8hQfOiwvWAjv1FpIQdZN-10" target="8hQfOiwvWAjv1FpIQdZN-11">
          <mxGeometry relative="1" as="geometry" />
        </mxCell>
        <mxCell id="8hQfOiwvWAjv1FpIQdZN-8" style="edgeStyle=orthogonalEdgeStyle;rounded=0;orthogonalLoop=1;jettySize=auto;html=1;entryX=0;entryY=0.5;entryDx=0;entryDy=0;strokeColor=default;strokeWidth=1;align=center;verticalAlign=middle;fontFamily=Verdana;fontSize=8;fontColor=default;labelBackgroundColor=none;resizable=0;endArrow=classic;fillColor=none;gradientColor=none;" edge="1" parent="1" source="8hQfOiwvWAjv1FpIQdZN-10" target="8hQfOiwvWAjv1FpIQdZN-16">
          <mxGeometry relative="1" as="geometry" />
        </mxCell>
        <mxCell id="8hQfOiwvWAjv1FpIQdZN-9" style="edgeStyle=orthogonalEdgeStyle;rounded=0;orthogonalLoop=1;jettySize=auto;html=1;entryX=0;entryY=0.5;entryDx=0;entryDy=0;strokeColor=default;strokeWidth=1;align=center;verticalAlign=middle;fontFamily=Verdana;fontSize=8;fontColor=default;labelBackgroundColor=none;resizable=0;endArrow=classic;fillColor=none;gradientColor=none;" edge="1" parent="1" source="8hQfOiwvWAjv1FpIQdZN-10" target="8hQfOiwvWAjv1FpIQdZN-17">
          <mxGeometry relative="1" as="geometry" />
        </mxCell>
        <mxCell id="8hQfOiwvWAjv1FpIQdZN-10" value="View: Bibliothek&lt;br&gt;(loged out)" style="strokeWidth=1;html=1;shape=mxgraph.flowchart.start_2;whiteSpace=wrap;rounded=0;shadow=1;strokeColor=default;align=center;verticalAlign=middle;fontFamily=Verdana;fontSize=8;fontColor=default;labelBackgroundColor=none;fillColor=default;" vertex="1" parent="1">
          <mxGeometry x="20" y="320" width="60" height="60" as="geometry" />
        </mxCell>
        <mxCell id="8hQfOiwvWAjv1FpIQdZN-11" value="Anzeige aller Fragenpools" style="whiteSpace=wrap;html=1;rounded=0;shadow=1;labelBackgroundColor=none;strokeWidth=1;fontFamily=Verdana;fontSize=8;align=center;" vertex="1" parent="1">
          <mxGeometry x="250" y="140" width="120" height="40" as="geometry" />
        </mxCell>
        <mxCell id="8hQfOiwvWAjv1FpIQdZN-12" value="Anzeige aller Fragen&amp;nbsp;des ausgewÃ¤hlten Pools" style="whiteSpace=wrap;html=1;rounded=0;shadow=1;labelBackgroundColor=none;strokeWidth=1;fontFamily=Verdana;fontSize=8;align=center;" vertex="1" parent="1">
          <mxGeometry x="460" y="330" width="120" height="40" as="geometry" />
        </mxCell>
        <mxCell id="8hQfOiwvWAjv1FpIQdZN-13" value="Alle Fragenpools anzeigen" style="whiteSpace=wrap;html=1;rounded=0;shadow=1;labelBackgroundColor=none;strokeWidth=1;fontFamily=Verdana;fontSize=8;align=center;" vertex="1" parent="1">
          <mxGeometry x="740" y="1140" width="120" height="40" as="geometry" />
        </mxCell>
        <mxCell id="8hQfOiwvWAjv1FpIQdZN-14" value="Anzeige aller Antwortoptionen einer ausgewÃ¤hlten Frage&amp;nbsp;" style="whiteSpace=wrap;html=1;rounded=0;shadow=1;labelBackgroundColor=none;strokeWidth=1;fontFamily=Verdana;fontSize=8;align=center;" vertex="1" parent="1">
          <mxGeometry x="738.12" y="1230" width="120" height="40" as="geometry" />
        </mxCell>
        <mxCell id="8hQfOiwvWAjv1FpIQdZN-15" style="edgeStyle=orthogonalEdgeStyle;rounded=0;orthogonalLoop=1;jettySize=auto;html=1;entryX=0;entryY=0.5;entryDx=0;entryDy=0;strokeColor=default;strokeWidth=1;align=center;verticalAlign=middle;fontFamily=Verdana;fontSize=8;fontColor=default;labelBackgroundColor=none;resizable=0;endArrow=classic;fillColor=none;gradientColor=none;" edge="1" parent="1" source="8hQfOiwvWAjv1FpIQdZN-16" target="8hQfOiwvWAjv1FpIQdZN-12">
          <mxGeometry relative="1" as="geometry" />
        </mxCell>
        <mxCell id="8hQfOiwvWAjv1FpIQdZN-16" value="Klick [Pool x]" style="whiteSpace=wrap;html=1;rounded=0;shadow=1;labelBackgroundColor=none;strokeWidth=1;fontFamily=Verdana;fontSize=8;align=center;" vertex="1" parent="1">
          <mxGeometry x="250" y="330" width="120" height="40" as="geometry" />
        </mxCell>
        <mxCell id="8hQfOiwvWAjv1FpIQdZN-17" value="Klick [Login]" style="whiteSpace=wrap;html=1;rounded=0;shadow=1;labelBackgroundColor=none;strokeWidth=1;fontFamily=Verdana;fontSize=8;align=center;" vertex="1" parent="1">
          <mxGeometry x="250" y="530" width="120" height="40" as="geometry" />
        </mxCell>
        <mxCell id="8hQfOiwvWAjv1FpIQdZN-18" value="View: Bibliothek&lt;div&gt;(loged in)&lt;/div&gt;" style="strokeWidth=1;html=1;shape=mxgraph.flowchart.terminator;whiteSpace=wrap;fontFamily=Verdana;fontSize=8;fontColor=default;labelBackgroundColor=none;resizable=0;rounded=0;shadow=1;strokeColor=default;align=center;verticalAlign=middle;fillColor=default;" vertex="1" parent="1">
          <mxGeometry x="470" y="520" width="100" height="60" as="geometry" />
        </mxCell>
        <mxCell id="8hQfOiwvWAjv1FpIQdZN-19" style="edgeStyle=orthogonalEdgeStyle;rounded=0;orthogonalLoop=1;jettySize=auto;html=1;entryX=0;entryY=0.5;entryDx=0;entryDy=0;entryPerimeter=0;strokeColor=default;strokeWidth=1;align=center;verticalAlign=middle;fontFamily=Verdana;fontSize=8;fontColor=default;labelBackgroundColor=none;resizable=0;endArrow=classic;fillColor=none;gradientColor=none;" edge="1" parent="1" source="8hQfOiwvWAjv1FpIQdZN-17" target="8hQfOiwvWAjv1FpIQdZN-18">
          <mxGeometry relative="1" as="geometry" />
        </mxCell>
        <mxCell id="8hQfOiwvWAjv1FpIQdZN-20" value="&lt;pre&gt;&lt;span style=&quot;font-family: Helvetica; white-space: normal;&quot;&gt;&lt;font style=&quot;font-size: 15px;&quot;&gt;UF4 - (as default) Fragenpool erstellen / Name Ã¤ndern / lÃ¶schen&amp;nbsp;&lt;/font&gt;&lt;/span&gt;&lt;/pre&gt;" style="text;whiteSpace=wrap;html=1;strokeColor=default;verticalAlign=middle;labelPosition=center;verticalLabelPosition=middle;align=center;" vertex="1" parent="1">
          <mxGeometry x="10" y="1710" width="210" height="60" as="geometry" />
        </mxCell>
        <mxCell id="8hQfOiwvWAjv1FpIQdZN-21" value="" style="text;html=1;align=center;verticalAlign=middle;whiteSpace=wrap;rounded=0;strokeColor=default;fontSize=9;" vertex="1" parent="1">
          <mxGeometry x="230" y="1710" width="420" height="60" as="geometry" />
        </mxCell>
        <mxCell id="8hQfOiwvWAjv1FpIQdZN-22" value="Views:&lt;div style=&quot;font-size: 8px;&quot;&gt;&lt;ul style=&quot;font-size: 8px;&quot;&gt;&lt;li style=&quot;font-size: 8px;&quot;&gt;Bibliothek&lt;/li&gt;&lt;/ul&gt;&lt;/div&gt;" style="text;html=1;align=left;verticalAlign=top;whiteSpace=wrap;rounded=0;textShadow=0;strokeColor=default;fontSize=8;" vertex="1" parent="1">
          <mxGeometry x="670" y="1710" width="420" height="60" as="geometry" />
        </mxCell>
        <mxCell id="8hQfOiwvWAjv1FpIQdZN-23" style="edgeStyle=orthogonalEdgeStyle;rounded=0;orthogonalLoop=1;jettySize=auto;html=1;entryX=0;entryY=0.5;entryDx=0;entryDy=0;strokeColor=default;strokeWidth=1;align=center;verticalAlign=middle;fontFamily=Verdana;fontSize=8;fontColor=default;labelBackgroundColor=none;resizable=0;endArrow=classic;fillColor=none;gradientColor=none;" edge="1" parent="1" source="8hQfOiwvWAjv1FpIQdZN-24" target="8hQfOiwvWAjv1FpIQdZN-72">
          <mxGeometry relative="1" as="geometry" />
        </mxCell>
        <mxCell id="8hQfOiwvWAjv1FpIQdZN-24" value="View: Bibliothek&lt;br&gt;(as default)" style="strokeWidth=1;html=1;shape=mxgraph.flowchart.start_2;whiteSpace=wrap;rounded=0;shadow=1;strokeColor=default;align=center;verticalAlign=middle;fontFamily=Verdana;fontSize=8;fontColor=default;labelBackgroundColor=none;fillColor=default;" vertex="1" parent="1">
          <mxGeometry x="10" y="2070" width="60" height="60" as="geometry" />
        </mxCell>
        <mxCell id="8hQfOiwvWAjv1FpIQdZN-25" value="" style="edgeStyle=orthogonalEdgeStyle;rounded=0;orthogonalLoop=1;jettySize=auto;html=1;entryX=0;entryY=0.5;entryDx=0;entryDy=0;" edge="1" parent="1" source="8hQfOiwvWAjv1FpIQdZN-26" target="8hQfOiwvWAjv1FpIQdZN-27">
          <mxGeometry relative="1" as="geometry" />
        </mxCell>
        <mxCell id="8hQfOiwvWAjv1FpIQdZN-26" value="Klick [Fragenpool hinzufÃ¼gen]" style="whiteSpace=wrap;html=1;rounded=0;shadow=1;labelBackgroundColor=none;strokeWidth=1;fontFamily=Verdana;fontSize=8;align=center;" vertex="1" parent="1">
          <mxGeometry x="226" y="1910" width="120" height="40" as="geometry" />
        </mxCell>
        <mxCell id="8hQfOiwvWAjv1FpIQdZN-27" value="Eingabe &amp;lt;Name&amp;gt;" style="whiteSpace=wrap;html=1;rounded=0;shadow=1;labelBackgroundColor=none;strokeWidth=1;fontFamily=Verdana;fontSize=8;align=center;" vertex="1" parent="1">
          <mxGeometry x="396.02" y="1910" width="120" height="40" as="geometry" />
        </mxCell>
        <mxCell id="8hQfOiwvWAjv1FpIQdZN-28" style="edgeStyle=orthogonalEdgeStyle;rounded=0;orthogonalLoop=1;jettySize=auto;html=1;entryX=0;entryY=0.5;entryDx=0;entryDy=0;shadow=1;strokeColor=default;strokeWidth=1;align=center;verticalAlign=middle;fontFamily=Verdana;fontSize=8;fontColor=default;labelBackgroundColor=none;endArrow=classic;fillColor=default;exitX=1;exitY=0.5;exitDx=0;exitDy=0;exitPerimeter=0;" edge="1" parent="1" source="8hQfOiwvWAjv1FpIQdZN-31" target="8hQfOiwvWAjv1FpIQdZN-34">
          <mxGeometry relative="1" as="geometry">
            <mxPoint x="646" y="1930" as="sourcePoint" />
          </mxGeometry>
        </mxCell>
        <mxCell id="8hQfOiwvWAjv1FpIQdZN-29" value="Nein" style="edgeLabel;html=1;align=center;verticalAlign=middle;resizable=0;points=[];rounded=0;shadow=1;strokeColor=default;strokeWidth=1;fontFamily=Verdana;fontSize=8;fontColor=default;labelBackgroundColor=none;fillColor=default;" vertex="1" connectable="0" parent="8hQfOiwvWAjv1FpIQdZN-28">
          <mxGeometry x="-0.76" relative="1" as="geometry">
            <mxPoint x="4" y="-10" as="offset" />
          </mxGeometry>
        </mxCell>
        <mxCell id="8hQfOiwvWAjv1FpIQdZN-30" value="Ja" style="edgeStyle=orthogonalEdgeStyle;rounded=0;orthogonalLoop=1;jettySize=auto;html=1;entryX=0.5;entryY=1;entryDx=0;entryDy=0;strokeColor=default;strokeWidth=1;align=center;verticalAlign=middle;fontFamily=Verdana;fontSize=8;fontColor=default;labelBackgroundColor=none;resizable=0;endArrow=classic;fillColor=none;gradientColor=none;exitX=0.5;exitY=1;exitDx=0;exitDy=0;exitPerimeter=0;" edge="1" parent="1" source="8hQfOiwvWAjv1FpIQdZN-31" target="8hQfOiwvWAjv1FpIQdZN-27">
          <mxGeometry x="-0.9512" y="10" relative="1" as="geometry">
            <mxPoint x="606" y="1965" as="sourcePoint" />
            <Array as="points">
              <mxPoint x="606" y="1985" />
              <mxPoint x="456" y="1985" />
            </Array>
            <mxPoint as="offset" />
          </mxGeometry>
        </mxCell>
        <mxCell id="8hQfOiwvWAjv1FpIQdZN-31" value="Name vergeben?" style="strokeWidth=1;html=1;shape=mxgraph.flowchart.decision;whiteSpace=wrap;rounded=0;shadow=1;strokeColor=default;align=center;verticalAlign=middle;fontFamily=Verdana;fontSize=8;fontColor=default;labelBackgroundColor=none;fillColor=default;" vertex="1" parent="1">
          <mxGeometry x="566" y="1895" width="80" height="70" as="geometry" />
        </mxCell>
        <mxCell id="8hQfOiwvWAjv1FpIQdZN-32" style="edgeStyle=orthogonalEdgeStyle;rounded=0;orthogonalLoop=1;jettySize=auto;html=1;entryX=0;entryY=0.5;entryDx=0;entryDy=0;entryPerimeter=0;" edge="1" parent="1" source="8hQfOiwvWAjv1FpIQdZN-27" target="8hQfOiwvWAjv1FpIQdZN-31">
          <mxGeometry relative="1" as="geometry">
            <mxPoint x="566" y="1930" as="targetPoint" />
          </mxGeometry>
        </mxCell>
        <mxCell id="8hQfOiwvWAjv1FpIQdZN-33" style="edgeStyle=orthogonalEdgeStyle;rounded=0;orthogonalLoop=1;jettySize=auto;html=1;entryX=0;entryY=0.5;entryDx=0;entryDy=0;strokeColor=default;strokeWidth=1;align=center;verticalAlign=middle;fontFamily=Verdana;fontSize=8;fontColor=default;labelBackgroundColor=none;resizable=0;endArrow=classic;fillColor=none;gradientColor=none;" edge="1" parent="1" source="8hQfOiwvWAjv1FpIQdZN-34" target="8hQfOiwvWAjv1FpIQdZN-65">
          <mxGeometry relative="1" as="geometry" />
        </mxCell>
        <mxCell id="8hQfOiwvWAjv1FpIQdZN-34" value="Fragenpool anlegen" style="whiteSpace=wrap;html=1;rounded=0;shadow=1;labelBackgroundColor=none;strokeWidth=1;fontFamily=Verdana;fontSize=8;align=center;" vertex="1" parent="1">
          <mxGeometry x="696" y="1910" width="120" height="40" as="geometry" />
        </mxCell>
        <mxCell id="8hQfOiwvWAjv1FpIQdZN-35" value="Liste der Fragenpools aktualisieren" style="whiteSpace=wrap;html=1;rounded=0;shadow=1;labelBackgroundColor=none;strokeWidth=1;fontFamily=Verdana;fontSize=8;align=center;" vertex="1" parent="1">
          <mxGeometry x="916" y="2250" width="120" height="40" as="geometry" />
        </mxCell>
        <mxCell id="8hQfOiwvWAjv1FpIQdZN-36" value="View: Bibliothek" style="strokeWidth=1;html=1;shape=mxgraph.flowchart.terminator;whiteSpace=wrap;fontFamily=Verdana;fontSize=8;fontColor=default;labelBackgroundColor=none;resizable=0;rounded=0;shadow=1;strokeColor=default;align=center;verticalAlign=middle;fillColor=default;" vertex="1" parent="1">
          <mxGeometry x="990" y="2070" width="100" height="60" as="geometry" />
        </mxCell>
        <mxCell id="8hQfOiwvWAjv1FpIQdZN-37" style="edgeStyle=orthogonalEdgeStyle;rounded=0;orthogonalLoop=1;jettySize=auto;html=1;shadow=1;strokeColor=default;strokeWidth=1;align=center;verticalAlign=middle;fontFamily=Verdana;fontSize=8;fontColor=default;labelBackgroundColor=none;endArrow=classic;fillColor=default;exitX=0.5;exitY=1;exitDx=0;exitDy=0;entryX=0;entryY=0.5;entryDx=0;entryDy=0;" edge="1" parent="1" source="8hQfOiwvWAjv1FpIQdZN-72" target="8hQfOiwvWAjv1FpIQdZN-43">
          <mxGeometry relative="1" as="geometry" />
        </mxCell>
        <mxCell id="8hQfOiwvWAjv1FpIQdZN-38" value="&lt;span style=&quot;color: rgba(0, 0, 0, 0); font-family: monospace; font-size: 0px; text-align: start;&quot;&gt;%3CmxGraphModel%3E%3Croot%3E%3CmxCell%20id%3D%220%22%2F%3E%3CmxCell%20id%3D%221%22%20parent%3D%220%22%2F%3E%3CmxCell%20id%3D%222%22%20value%3D%22Fragenpool%20%26lt%3Bbr%26gt%3Bhinzuf%C3%BCgen%22%20style%3D%22edgeLabel%3Bhtml%3D1%3Balign%3Dcenter%3BverticalAlign%3Dmiddle%3Bresizable%3D0%3Bpoints%3D%5B%5D%3BfontFamily%3DVerdana%3BfontSize%3D8%3BfontColor%3Ddefault%3BlabelBackgroundColor%3Dnone%3B%22%20vertex%3D%221%22%20connectable%3D%220%22%20parent%3D%221%22%3E%3CmxGeometry%20x%3D%22140%22%20y%3D%222790%22%20as%3D%22geometry%22%2F%3E%3C%2FmxCell%3E%3C%2Froot%3E%3C%2FmxGraphModel%3EFra&lt;/span&gt;" style="edgeLabel;html=1;align=center;verticalAlign=middle;resizable=0;points=[];fontFamily=Verdana;fontSize=8;fontColor=default;labelBackgroundColor=none;" vertex="1" connectable="0" parent="8hQfOiwvWAjv1FpIQdZN-37">
          <mxGeometry x="-0.6293" y="-3" relative="1" as="geometry">
            <mxPoint as="offset" />
          </mxGeometry>
        </mxCell>
        <mxCell id="8hQfOiwvWAjv1FpIQdZN-39" value="Fragenpool &lt;br&gt;lÃ¶schen" style="edgeLabel;html=1;align=center;verticalAlign=middle;resizable=0;points=[];fontFamily=Verdana;fontSize=8;fontColor=default;labelBackgroundColor=none;" vertex="1" connectable="0" parent="8hQfOiwvWAjv1FpIQdZN-37">
          <mxGeometry x="-0.3366" y="1" relative="1" as="geometry">
            <mxPoint x="-31" as="offset" />
          </mxGeometry>
        </mxCell>
        <mxCell id="8hQfOiwvWAjv1FpIQdZN-40" style="edgeStyle=orthogonalEdgeStyle;rounded=0;orthogonalLoop=1;jettySize=auto;html=1;entryX=0;entryY=0.5;entryDx=0;entryDy=0;strokeColor=default;strokeWidth=1;align=center;verticalAlign=middle;fontFamily=Verdana;fontSize=8;fontColor=default;labelBackgroundColor=none;resizable=0;endArrow=classic;fillColor=none;gradientColor=none;" edge="1" parent="1" source="8hQfOiwvWAjv1FpIQdZN-41" target="8hQfOiwvWAjv1FpIQdZN-74">
          <mxGeometry relative="1" as="geometry" />
        </mxCell>
        <mxCell id="8hQfOiwvWAjv1FpIQdZN-41" value="Klick [Pool X]" style="whiteSpace=wrap;html=1;rounded=0;shadow=1;labelBackgroundColor=none;strokeWidth=1;fontFamily=Verdana;fontSize=8;align=center;" vertex="1" parent="1">
          <mxGeometry x="226" y="2080" width="120" height="40" as="geometry" />
        </mxCell>
        <mxCell id="8hQfOiwvWAjv1FpIQdZN-42" style="edgeStyle=orthogonalEdgeStyle;rounded=0;orthogonalLoop=1;jettySize=auto;html=1;entryX=1;entryY=0.5;entryDx=0;entryDy=0;strokeColor=default;strokeWidth=1;align=center;verticalAlign=middle;fontFamily=Verdana;fontSize=8;fontColor=default;labelBackgroundColor=none;resizable=0;endArrow=classic;fillColor=none;gradientColor=none;" edge="1" parent="1" source="8hQfOiwvWAjv1FpIQdZN-43" target="8hQfOiwvWAjv1FpIQdZN-83">
          <mxGeometry relative="1" as="geometry" />
        </mxCell>
        <mxCell id="8hQfOiwvWAjv1FpIQdZN-43" value="Klick [Fragenpool lÃ¶schen]" style="whiteSpace=wrap;html=1;rounded=0;shadow=1;labelBackgroundColor=none;strokeWidth=1;fontFamily=Verdana;fontSize=8;align=center;" vertex="1" parent="1">
          <mxGeometry x="226" y="2250" width="120" height="40" as="geometry" />
        </mxCell>
        <mxCell id="8hQfOiwvWAjv1FpIQdZN-44" value="Klick [LÃ¶schen bestÃ¤tigen]" style="whiteSpace=wrap;html=1;rounded=0;shadow=1;labelBackgroundColor=none;strokeWidth=1;fontFamily=Verdana;fontSize=8;align=center;direction=west;" vertex="1" parent="1">
          <mxGeometry x="526" y="2250" width="120" height="40" as="geometry" />
        </mxCell>
        <mxCell id="8hQfOiwvWAjv1FpIQdZN-45" value="Ja" style="edgeStyle=orthogonalEdgeStyle;rounded=0;orthogonalLoop=1;jettySize=auto;html=1;entryX=1;entryY=0.5;entryDx=0;entryDy=0;strokeColor=default;strokeWidth=1;align=center;verticalAlign=middle;fontFamily=Verdana;fontSize=8;fontColor=default;labelBackgroundColor=none;resizable=0;endArrow=classic;fillColor=none;gradientColor=none;" edge="1" parent="1" source="8hQfOiwvWAjv1FpIQdZN-46" target="8hQfOiwvWAjv1FpIQdZN-48">
          <mxGeometry x="0.3044" y="10" relative="1" as="geometry">
            <mxPoint as="offset" />
          </mxGeometry>
        </mxCell>
        <mxCell id="8hQfOiwvWAjv1FpIQdZN-46" value="bestÃ¤tigt?" style="strokeWidth=1;html=1;shape=mxgraph.flowchart.decision;whiteSpace=wrap;rounded=0;shadow=1;strokeColor=default;align=center;verticalAlign=middle;fontFamily=Verdana;fontSize=8;fontColor=default;labelBackgroundColor=none;fillColor=default;" vertex="1" parent="1">
          <mxGeometry x="676.02" y="2246.5" width="67.51" height="47" as="geometry" />
        </mxCell>
        <mxCell id="8hQfOiwvWAjv1FpIQdZN-47" style="edgeStyle=orthogonalEdgeStyle;rounded=0;orthogonalLoop=1;jettySize=auto;html=1;entryX=0;entryY=0.5;entryDx=0;entryDy=0;strokeColor=default;strokeWidth=1;align=center;verticalAlign=middle;fontFamily=Verdana;fontSize=8;fontColor=default;labelBackgroundColor=none;resizable=0;endArrow=classic;fillColor=none;gradientColor=none;" edge="1" parent="1" source="8hQfOiwvWAjv1FpIQdZN-48" target="8hQfOiwvWAjv1FpIQdZN-35">
          <mxGeometry relative="1" as="geometry" />
        </mxCell>
        <mxCell id="8hQfOiwvWAjv1FpIQdZN-48" value="Frage lÃ¶schen&lt;span style=&quot;color: rgba(0, 0, 0, 0); font-family: monospace; font-size: 0px; text-align: start; text-wrap: nowrap;&quot;&gt;%3CmxGraphModel%3E%3Croot%3E%3CmxCell%20id%3D%220%22%2F%3E%3CmxCell%20id%3D%221%22%20parent%3D%220%22%2F%3E%3CmxCell%20id%3D%222%22%20value%3D%22L%C3%B6schen%20best%C3%A4tigen%22%20style%3D%22whiteSpace%3Dwrap%3Bhtml%3D1%3Brounded%3D0%3Bshadow%3D1%3BlabelBackgroundColor%3Dnone%3BstrokeWidth%3D1%3BfontFamily%3DVerdana%3BfontSize%3D8%3Balign%3Dcenter%3Bdirection%3Dwest%3B%22%20vertex%3D%221%22%20parent%3D%221%22%3E%3CmxGeometry%20x%3D%22890%22%20y%3D%222180%22%20width%3D%22120%22%20height%3D%2240%22%20as%3D%22geometry%22%2F%3E%3C%2FmxCell%3E%3C%2Froot%3E%3C%2FmxGraphModel%3E&lt;/span&gt;" style="whiteSpace=wrap;html=1;rounded=0;shadow=1;labelBackgroundColor=none;strokeWidth=1;fontFamily=Verdana;fontSize=8;align=center;direction=west;" vertex="1" parent="1">
          <mxGeometry x="766" y="2250" width="120" height="40" as="geometry" />
        </mxCell>
        <mxCell id="8hQfOiwvWAjv1FpIQdZN-49" style="edgeStyle=orthogonalEdgeStyle;rounded=0;orthogonalLoop=1;jettySize=auto;html=1;entryX=0;entryY=0.5;entryDx=0;entryDy=0;strokeColor=default;strokeWidth=1;align=center;verticalAlign=middle;fontFamily=Verdana;fontSize=8;fontColor=default;labelBackgroundColor=none;resizable=0;endArrow=classic;fillColor=none;gradientColor=none;" edge="1" parent="1" source="8hQfOiwvWAjv1FpIQdZN-52" target="8hQfOiwvWAjv1FpIQdZN-53">
          <mxGeometry relative="1" as="geometry" />
        </mxCell>
        <mxCell id="8hQfOiwvWAjv1FpIQdZN-50" style="edgeStyle=orthogonalEdgeStyle;rounded=0;orthogonalLoop=1;jettySize=auto;html=1;entryX=0;entryY=0.5;entryDx=0;entryDy=0;strokeColor=default;strokeWidth=1;align=center;verticalAlign=middle;fontFamily=Verdana;fontSize=8;fontColor=default;labelBackgroundColor=none;resizable=0;endArrow=classic;fillColor=none;gradientColor=none;" edge="1" parent="1" source="8hQfOiwvWAjv1FpIQdZN-52" target="8hQfOiwvWAjv1FpIQdZN-57">
          <mxGeometry relative="1" as="geometry" />
        </mxCell>
        <mxCell id="8hQfOiwvWAjv1FpIQdZN-51" style="edgeStyle=orthogonalEdgeStyle;rounded=0;orthogonalLoop=1;jettySize=auto;html=1;entryX=0;entryY=0.5;entryDx=0;entryDy=0;strokeColor=default;strokeWidth=1;align=center;verticalAlign=middle;fontFamily=Verdana;fontSize=8;fontColor=default;labelBackgroundColor=none;resizable=0;endArrow=classic;fillColor=none;gradientColor=none;" edge="1" parent="1" source="8hQfOiwvWAjv1FpIQdZN-52" target="8hQfOiwvWAjv1FpIQdZN-58">
          <mxGeometry relative="1" as="geometry" />
        </mxCell>
        <mxCell id="8hQfOiwvWAjv1FpIQdZN-52" value="View: Bibliothek&lt;br&gt;(as default)" style="strokeWidth=1;html=1;shape=mxgraph.flowchart.start_2;whiteSpace=wrap;rounded=0;shadow=1;strokeColor=default;align=center;verticalAlign=middle;fontFamily=Verdana;fontSize=8;fontColor=default;labelBackgroundColor=none;fillColor=default;" vertex="1" parent="1">
          <mxGeometry x="30" y="1220" width="60" height="60" as="geometry" />
        </mxCell>
        <mxCell id="8hQfOiwvWAjv1FpIQdZN-53" value="Anzeige aller Fragenpools" style="whiteSpace=wrap;html=1;rounded=0;shadow=1;labelBackgroundColor=none;strokeWidth=1;fontFamily=Verdana;fontSize=8;align=center;" vertex="1" parent="1">
          <mxGeometry x="260" y="1040" width="120" height="40" as="geometry" />
        </mxCell>
        <mxCell id="8hQfOiwvWAjv1FpIQdZN-54" style="edgeStyle=orthogonalEdgeStyle;rounded=0;orthogonalLoop=1;jettySize=auto;html=1;entryX=0;entryY=0.5;entryDx=0;entryDy=0;strokeColor=default;strokeWidth=1;align=center;verticalAlign=middle;fontFamily=Verdana;fontSize=8;fontColor=default;labelBackgroundColor=none;resizable=0;endArrow=classic;fillColor=none;gradientColor=none;" edge="1" parent="1" source="8hQfOiwvWAjv1FpIQdZN-55" target="8hQfOiwvWAjv1FpIQdZN-62">
          <mxGeometry relative="1" as="geometry" />
        </mxCell>
        <mxCell id="8hQfOiwvWAjv1FpIQdZN-55" value="Anzeige aller Fragen&amp;nbsp;des ausgewÃ¤hlten Pools" style="whiteSpace=wrap;html=1;rounded=0;shadow=1;labelBackgroundColor=none;strokeWidth=1;fontFamily=Verdana;fontSize=8;align=center;" vertex="1" parent="1">
          <mxGeometry x="420" y="1230" width="120" height="40" as="geometry" />
        </mxCell>
        <mxCell id="8hQfOiwvWAjv1FpIQdZN-56" style="edgeStyle=orthogonalEdgeStyle;rounded=0;orthogonalLoop=1;jettySize=auto;html=1;strokeColor=default;strokeWidth=1;align=center;verticalAlign=middle;fontFamily=Verdana;fontSize=8;fontColor=default;labelBackgroundColor=none;resizable=0;endArrow=classic;fillColor=none;gradientColor=none;entryX=0;entryY=0.5;entryDx=0;entryDy=0;" edge="1" parent="1" source="8hQfOiwvWAjv1FpIQdZN-57" target="8hQfOiwvWAjv1FpIQdZN-55">
          <mxGeometry relative="1" as="geometry">
            <mxPoint x="470" y="1250" as="targetPoint" />
          </mxGeometry>
        </mxCell>
        <mxCell id="8hQfOiwvWAjv1FpIQdZN-57" value="Klick [Pool x]" style="whiteSpace=wrap;html=1;rounded=0;shadow=1;labelBackgroundColor=none;strokeWidth=1;fontFamily=Verdana;fontSize=8;align=center;" vertex="1" parent="1">
          <mxGeometry x="260" y="1230" width="120" height="40" as="geometry" />
        </mxCell>
        <mxCell id="8hQfOiwvWAjv1FpIQdZN-58" value="Klick [Logout]" style="whiteSpace=wrap;html=1;rounded=0;shadow=1;labelBackgroundColor=none;strokeWidth=1;fontFamily=Verdana;fontSize=8;align=center;" vertex="1" parent="1">
          <mxGeometry x="260" y="1430" width="120" height="40" as="geometry" />
        </mxCell>
        <mxCell id="8hQfOiwvWAjv1FpIQdZN-59" value="View: Login" style="strokeWidth=1;html=1;shape=mxgraph.flowchart.terminator;whiteSpace=wrap;fontFamily=Verdana;fontSize=8;fontColor=default;labelBackgroundColor=none;resizable=0;rounded=0;shadow=1;strokeColor=default;align=center;verticalAlign=middle;fillColor=default;" vertex="1" parent="1">
          <mxGeometry x="453.76" y="1420" width="100" height="60" as="geometry" />
        </mxCell>
        <mxCell id="8hQfOiwvWAjv1FpIQdZN-60" style="edgeStyle=orthogonalEdgeStyle;rounded=0;orthogonalLoop=1;jettySize=auto;html=1;entryX=0;entryY=0.5;entryDx=0;entryDy=0;entryPerimeter=0;strokeColor=default;strokeWidth=1;align=center;verticalAlign=middle;fontFamily=Verdana;fontSize=8;fontColor=default;labelBackgroundColor=none;resizable=0;endArrow=classic;fillColor=none;gradientColor=none;" edge="1" parent="1" source="8hQfOiwvWAjv1FpIQdZN-58" target="8hQfOiwvWAjv1FpIQdZN-59">
          <mxGeometry relative="1" as="geometry">
            <mxPoint x="480" y="1450" as="targetPoint" />
          </mxGeometry>
        </mxCell>
        <mxCell id="8hQfOiwvWAjv1FpIQdZN-61" style="edgeStyle=orthogonalEdgeStyle;rounded=0;orthogonalLoop=1;jettySize=auto;html=1;entryX=0;entryY=0.5;entryDx=0;entryDy=0;strokeColor=default;strokeWidth=1;align=center;verticalAlign=middle;fontFamily=Verdana;fontSize=8;fontColor=default;labelBackgroundColor=none;resizable=0;endArrow=classic;fillColor=none;gradientColor=none;" edge="1" parent="1" source="8hQfOiwvWAjv1FpIQdZN-62" target="8hQfOiwvWAjv1FpIQdZN-14">
          <mxGeometry relative="1" as="geometry" />
        </mxCell>
        <mxCell id="8hQfOiwvWAjv1FpIQdZN-62" value="Klick [Frage x]" style="whiteSpace=wrap;html=1;rounded=0;shadow=1;labelBackgroundColor=none;strokeWidth=1;fontFamily=Verdana;fontSize=8;align=center;" vertex="1" parent="1">
          <mxGeometry x="580" y="1230" width="120" height="40" as="geometry" />
        </mxCell>
        <mxCell id="8hQfOiwvWAjv1FpIQdZN-63" value="Standardnavigation - Gilt fÃ¼r jede View im eingelogten Zustand und wird hier nur einmalig dargestellt" style="whiteSpace=wrap;html=1;rounded=0;shadow=1;labelBackgroundColor=none;strokeWidth=1;fontFamily=Verdana;fontSize=8;align=left;fillColor=none;verticalAlign=top;dashed=1;" vertex="1" parent="1">
          <mxGeometry x="220" y="1360" width="430" height="180" as="geometry" />
        </mxCell>
        <mxCell id="8hQfOiwvWAjv1FpIQdZN-64" style="edgeStyle=orthogonalEdgeStyle;rounded=0;orthogonalLoop=1;jettySize=auto;html=1;strokeColor=default;strokeWidth=1;align=center;verticalAlign=middle;fontFamily=Verdana;fontSize=8;fontColor=default;labelBackgroundColor=none;resizable=0;endArrow=classic;fillColor=none;gradientColor=none;" edge="1" parent="1" source="8hQfOiwvWAjv1FpIQdZN-65" target="8hQfOiwvWAjv1FpIQdZN-36">
          <mxGeometry relative="1" as="geometry" />
        </mxCell>
        <mxCell id="8hQfOiwvWAjv1FpIQdZN-65" value="Liste der Fragenpools aktualisieren und den erstellten Fragenpool auswÃ¤hlen" style="whiteSpace=wrap;html=1;rounded=0;shadow=1;labelBackgroundColor=none;strokeWidth=1;fontFamily=Verdana;fontSize=8;align=center;" vertex="1" parent="1">
          <mxGeometry x="886" y="1910" width="120" height="40" as="geometry" />
        </mxCell>
        <mxCell id="8hQfOiwvWAjv1FpIQdZN-66" value="&lt;pre&gt;&lt;span style=&quot;font-family: Helvetica; white-space: normal;&quot;&gt;&lt;font style=&quot;font-size: 15px;&quot;&gt;UF6 - (as default) Antwortoptionen erstellen / Ã¤ndern / lÃ¶schen&amp;nbsp;&lt;/font&gt;&lt;/span&gt;&lt;/pre&gt;" style="text;whiteSpace=wrap;html=1;strokeColor=default;verticalAlign=middle;spacing=2;labelPosition=center;verticalLabelPosition=middle;align=center;" vertex="1" parent="1">
          <mxGeometry x="10" y="2560" width="210" height="60" as="geometry" />
        </mxCell>
        <mxCell id="8hQfOiwvWAjv1FpIQdZN-67" value="" style="text;html=1;align=center;verticalAlign=middle;whiteSpace=wrap;rounded=0;strokeColor=default;fontSize=9;" vertex="1" parent="1">
          <mxGeometry x="230" y="2560" width="420" height="60" as="geometry" />
        </mxCell>
        <mxCell id="8hQfOiwvWAjv1FpIQdZN-68" value="Views:&lt;div style=&quot;font-size: 8px;&quot;&gt;&lt;ul style=&quot;font-size: 8px;&quot;&gt;&lt;li style=&quot;font-size: 8px;&quot;&gt;Bibliothek&lt;/li&gt;&lt;/ul&gt;&lt;/div&gt;" style="text;html=1;align=left;verticalAlign=top;whiteSpace=wrap;rounded=0;textShadow=0;strokeColor=default;fontSize=8;" vertex="1" parent="1">
          <mxGeometry x="670" y="2560" width="420" height="60" as="geometry" />
        </mxCell>
        <mxCell id="8hQfOiwvWAjv1FpIQdZN-69" style="edgeStyle=orthogonalEdgeStyle;rounded=0;orthogonalLoop=1;jettySize=auto;html=1;entryX=0;entryY=0.5;entryDx=0;entryDy=0;strokeColor=default;strokeWidth=1;align=center;verticalAlign=middle;fontFamily=Verdana;fontSize=8;fontColor=default;labelBackgroundColor=none;resizable=0;endArrow=classic;fillColor=none;gradientColor=none;exitX=0.5;exitY=0;exitDx=0;exitDy=0;" edge="1" parent="1" source="8hQfOiwvWAjv1FpIQdZN-72" target="8hQfOiwvWAjv1FpIQdZN-26">
          <mxGeometry relative="1" as="geometry" />
        </mxCell>
        <mxCell id="8hQfOiwvWAjv1FpIQdZN-70" value="Fragenpool &lt;br&gt;hinzufÃ¼gen" style="edgeLabel;html=1;align=center;verticalAlign=middle;resizable=0;points=[];fontFamily=Verdana;fontSize=8;fontColor=default;labelBackgroundColor=none;" vertex="1" connectable="0" parent="8hQfOiwvWAjv1FpIQdZN-69">
          <mxGeometry x="-0.4368" y="1" relative="1" as="geometry">
            <mxPoint x="-29" y="25" as="offset" />
          </mxGeometry>
        </mxCell>
        <mxCell id="8hQfOiwvWAjv1FpIQdZN-71" value="Name des &lt;br&gt;Pools Ã¤ndern" style="edgeStyle=orthogonalEdgeStyle;rounded=0;orthogonalLoop=1;jettySize=auto;html=1;entryX=0;entryY=0.5;entryDx=0;entryDy=0;strokeColor=default;strokeWidth=1;align=center;verticalAlign=middle;fontFamily=Verdana;fontSize=8;fontColor=default;labelBackgroundColor=none;resizable=0;endArrow=classic;fillColor=none;gradientColor=none;" edge="1" parent="1" source="8hQfOiwvWAjv1FpIQdZN-72" target="8hQfOiwvWAjv1FpIQdZN-41">
          <mxGeometry x="-0.5" y="30" relative="1" as="geometry">
            <mxPoint as="offset" />
          </mxGeometry>
        </mxCell>
        <mxCell id="8hQfOiwvWAjv1FpIQdZN-72" value="Absicht" style="rhombus;whiteSpace=wrap;html=1;rounded=0;shadow=1;labelBackgroundColor=none;strokeWidth=1;fontFamily=Verdana;fontSize=8;align=center;" vertex="1" parent="1">
          <mxGeometry x="86" y="2070" width="100" height="60" as="geometry" />
        </mxCell>
        <mxCell id="8hQfOiwvWAjv1FpIQdZN-73" style="edgeStyle=orthogonalEdgeStyle;rounded=0;orthogonalLoop=1;jettySize=auto;html=1;strokeColor=default;strokeWidth=1;align=center;verticalAlign=middle;fontFamily=Verdana;fontSize=8;fontColor=default;labelBackgroundColor=none;resizable=0;endArrow=classic;fillColor=none;gradientColor=none;" edge="1" parent="1" source="8hQfOiwvWAjv1FpIQdZN-74" target="8hQfOiwvWAjv1FpIQdZN-75">
          <mxGeometry relative="1" as="geometry" />
        </mxCell>
        <mxCell id="8hQfOiwvWAjv1FpIQdZN-74" value="Klick [Name Ã¤ndern]" style="whiteSpace=wrap;html=1;rounded=0;shadow=1;labelBackgroundColor=none;strokeWidth=1;fontFamily=Verdana;fontSize=8;align=center;" vertex="1" parent="1">
          <mxGeometry x="376" y="2080" width="120" height="40" as="geometry" />
        </mxCell>
        <mxCell id="8hQfOiwvWAjv1FpIQdZN-75" value="Eingabe &amp;lt;Name&amp;gt;" style="whiteSpace=wrap;html=1;rounded=0;shadow=1;labelBackgroundColor=none;strokeWidth=1;fontFamily=Verdana;fontSize=8;align=center;" vertex="1" parent="1">
          <mxGeometry x="526" y="2080" width="120" height="40" as="geometry" />
        </mxCell>
        <mxCell id="8hQfOiwvWAjv1FpIQdZN-76" style="edgeStyle=orthogonalEdgeStyle;rounded=0;orthogonalLoop=1;jettySize=auto;html=1;entryX=0;entryY=0.5;entryDx=0;entryDy=0;shadow=1;strokeColor=default;strokeWidth=1;align=center;verticalAlign=middle;fontFamily=Verdana;fontSize=8;fontColor=default;labelBackgroundColor=none;endArrow=classic;fillColor=default;" edge="1" parent="1" source="8hQfOiwvWAjv1FpIQdZN-79" target="8hQfOiwvWAjv1FpIQdZN-81">
          <mxGeometry relative="1" as="geometry" />
        </mxCell>
        <mxCell id="8hQfOiwvWAjv1FpIQdZN-77" value="Nein" style="edgeLabel;html=1;align=center;verticalAlign=middle;resizable=0;points=[];rounded=0;shadow=1;strokeColor=default;strokeWidth=1;fontFamily=Verdana;fontSize=8;fontColor=default;labelBackgroundColor=none;fillColor=default;" vertex="1" connectable="0" parent="8hQfOiwvWAjv1FpIQdZN-76">
          <mxGeometry x="-0.76" relative="1" as="geometry">
            <mxPoint x="4" y="-10" as="offset" />
          </mxGeometry>
        </mxCell>
        <mxCell id="8hQfOiwvWAjv1FpIQdZN-78" value="Ja" style="edgeStyle=orthogonalEdgeStyle;rounded=0;orthogonalLoop=1;jettySize=auto;html=1;entryX=0.5;entryY=1;entryDx=0;entryDy=0;strokeColor=default;strokeWidth=1;align=center;verticalAlign=middle;fontFamily=Verdana;fontSize=8;fontColor=default;labelBackgroundColor=none;resizable=0;endArrow=classic;fillColor=none;gradientColor=none;" edge="1" parent="1" source="8hQfOiwvWAjv1FpIQdZN-79" target="8hQfOiwvWAjv1FpIQdZN-75">
          <mxGeometry x="-0.9512" y="10" relative="1" as="geometry">
            <Array as="points">
              <mxPoint x="716" y="2160" />
              <mxPoint x="586" y="2160" />
            </Array>
            <mxPoint as="offset" />
          </mxGeometry>
        </mxCell>
        <mxCell id="8hQfOiwvWAjv1FpIQdZN-79" value="Name vergeben?" style="strokeWidth=1;html=1;shape=mxgraph.flowchart.decision;whiteSpace=wrap;rounded=0;shadow=1;strokeColor=default;align=center;verticalAlign=middle;fontFamily=Verdana;fontSize=8;fontColor=default;labelBackgroundColor=none;fillColor=default;" vertex="1" parent="1">
          <mxGeometry x="676.02" y="2065" width="80" height="70" as="geometry" />
        </mxCell>
        <mxCell id="8hQfOiwvWAjv1FpIQdZN-80" style="edgeStyle=orthogonalEdgeStyle;rounded=0;orthogonalLoop=1;jettySize=auto;html=1;entryX=0;entryY=0.5;entryDx=0;entryDy=0;entryPerimeter=0;" edge="1" parent="1" source="8hQfOiwvWAjv1FpIQdZN-75" target="8hQfOiwvWAjv1FpIQdZN-79">
          <mxGeometry relative="1" as="geometry" />
        </mxCell>
        <mxCell id="8hQfOiwvWAjv1FpIQdZN-81" value="Name aktualisieren" style="whiteSpace=wrap;html=1;rounded=0;shadow=1;labelBackgroundColor=none;strokeWidth=1;fontFamily=Verdana;fontSize=8;align=center;" vertex="1" parent="1">
          <mxGeometry x="829.75" y="2080" width="120" height="40" as="geometry" />
        </mxCell>
        <mxCell id="8hQfOiwvWAjv1FpIQdZN-82" style="edgeStyle=orthogonalEdgeStyle;rounded=0;orthogonalLoop=1;jettySize=auto;html=1;entryX=1;entryY=0.5;entryDx=0;entryDy=0;strokeColor=default;strokeWidth=1;align=center;verticalAlign=middle;fontFamily=Verdana;fontSize=8;fontColor=default;labelBackgroundColor=none;resizable=0;endArrow=classic;fillColor=none;gradientColor=none;" edge="1" parent="1" source="8hQfOiwvWAjv1FpIQdZN-83" target="8hQfOiwvWAjv1FpIQdZN-44">
          <mxGeometry relative="1" as="geometry" />
        </mxCell>
        <mxCell id="8hQfOiwvWAjv1FpIQdZN-83" value="Anzeige LÃ¶schhinweis" style="whiteSpace=wrap;html=1;rounded=0;shadow=1;labelBackgroundColor=none;strokeWidth=1;fontFamily=Verdana;fontSize=8;align=center;direction=west;" vertex="1" parent="1">
          <mxGeometry x="376" y="2250" width="120" height="40" as="geometry" />
        </mxCell>
        <mxCell id="8hQfOiwvWAjv1FpIQdZN-84" style="edgeStyle=orthogonalEdgeStyle;rounded=0;orthogonalLoop=1;jettySize=auto;html=1;entryX=0;entryY=0.5;entryDx=0;entryDy=0;entryPerimeter=0;strokeColor=default;strokeWidth=1;align=center;verticalAlign=middle;fontFamily=Verdana;fontSize=8;fontColor=default;labelBackgroundColor=none;resizable=0;endArrow=classic;fillColor=none;gradientColor=none;" edge="1" parent="1" source="8hQfOiwvWAjv1FpIQdZN-44" target="8hQfOiwvWAjv1FpIQdZN-46">
          <mxGeometry relative="1" as="geometry" />
        </mxCell>
        <mxCell id="8hQfOiwvWAjv1FpIQdZN-85" style="edgeStyle=orthogonalEdgeStyle;rounded=0;orthogonalLoop=1;jettySize=auto;html=1;entryX=0.5;entryY=1;entryDx=0;entryDy=0;entryPerimeter=0;strokeColor=default;strokeWidth=1;align=center;verticalAlign=middle;fontFamily=Verdana;fontSize=8;fontColor=default;labelBackgroundColor=none;resizable=0;endArrow=classic;fillColor=none;gradientColor=none;" edge="1" parent="1" source="8hQfOiwvWAjv1FpIQdZN-35" target="8hQfOiwvWAjv1FpIQdZN-36">
          <mxGeometry relative="1" as="geometry" />
        </mxCell>
        <mxCell id="8hQfOiwvWAjv1FpIQdZN-86" style="edgeStyle=orthogonalEdgeStyle;rounded=0;orthogonalLoop=1;jettySize=auto;html=1;entryX=0;entryY=0.5;entryDx=0;entryDy=0;entryPerimeter=0;strokeColor=default;strokeWidth=1;align=center;verticalAlign=middle;fontFamily=Verdana;fontSize=8;fontColor=default;labelBackgroundColor=none;resizable=0;endArrow=classic;fillColor=none;gradientColor=none;" edge="1" parent="1" source="8hQfOiwvWAjv1FpIQdZN-81" target="8hQfOiwvWAjv1FpIQdZN-36">
          <mxGeometry relative="1" as="geometry" />
        </mxCell>
        <mxCell id="8hQfOiwvWAjv1FpIQdZN-87" style="edgeStyle=orthogonalEdgeStyle;rounded=0;orthogonalLoop=1;jettySize=auto;html=1;entryX=0.5;entryY=0;entryDx=0;entryDy=0;strokeColor=default;strokeWidth=1;align=center;verticalAlign=middle;fontFamily=Verdana;fontSize=8;fontColor=default;labelBackgroundColor=none;resizable=0;endArrow=classic;fillColor=none;gradientColor=none;exitX=0.5;exitY=1;exitDx=0;exitDy=0;exitPerimeter=0;" edge="1" parent="1" source="8hQfOiwvWAjv1FpIQdZN-88" target="8hQfOiwvWAjv1FpIQdZN-107">
          <mxGeometry relative="1" as="geometry" />
        </mxCell>
        <mxCell id="8hQfOiwvWAjv1FpIQdZN-88" value="View: Bibliothek&lt;br&gt;(as default)" style="strokeWidth=1;html=1;shape=mxgraph.flowchart.start_2;whiteSpace=wrap;rounded=0;shadow=1;strokeColor=default;align=center;verticalAlign=middle;fontFamily=Verdana;fontSize=8;fontColor=default;labelBackgroundColor=none;fillColor=default;" vertex="1" parent="1">
          <mxGeometry x="45" y="2770" width="60" height="60" as="geometry" />
        </mxCell>
        <mxCell id="8hQfOiwvWAjv1FpIQdZN-89" value="" style="edgeStyle=orthogonalEdgeStyle;rounded=0;orthogonalLoop=1;jettySize=auto;html=1;entryX=0;entryY=0.5;entryDx=0;entryDy=0;" edge="1" parent="1" source="8hQfOiwvWAjv1FpIQdZN-90" target="8hQfOiwvWAjv1FpIQdZN-92">
          <mxGeometry relative="1" as="geometry" />
        </mxCell>
        <mxCell id="8hQfOiwvWAjv1FpIQdZN-90" value="AusfÃ¼llen &amp;lt;Antwortoption x&amp;gt;" style="whiteSpace=wrap;html=1;rounded=0;shadow=1;labelBackgroundColor=none;strokeWidth=1;fontFamily=Verdana;fontSize=8;align=center;" vertex="1" parent="1">
          <mxGeometry x="260" y="2720" width="120" height="40" as="geometry" />
        </mxCell>
        <mxCell id="8hQfOiwvWAjv1FpIQdZN-91" style="edgeStyle=orthogonalEdgeStyle;rounded=0;orthogonalLoop=1;jettySize=auto;html=1;entryX=0;entryY=0.5;entryDx=0;entryDy=0;strokeColor=default;strokeWidth=1;align=center;verticalAlign=middle;fontFamily=Verdana;fontSize=8;fontColor=default;labelBackgroundColor=none;resizable=0;endArrow=classic;fillColor=none;gradientColor=none;" edge="1" parent="1" source="8hQfOiwvWAjv1FpIQdZN-92" target="8hQfOiwvWAjv1FpIQdZN-164">
          <mxGeometry relative="1" as="geometry" />
        </mxCell>
        <mxCell id="8hQfOiwvWAjv1FpIQdZN-92" value="Auswahl&amp;nbsp; [Richtig/Falsch]" style="whiteSpace=wrap;html=1;rounded=0;shadow=1;labelBackgroundColor=none;strokeWidth=1;fontFamily=Verdana;fontSize=8;align=center;" vertex="1" parent="1">
          <mxGeometry x="410" y="2720" width="120" height="40" as="geometry" />
        </mxCell>
        <mxCell id="8hQfOiwvWAjv1FpIQdZN-93" value="Klick [Ãnderung speichern]" style="whiteSpace=wrap;html=1;rounded=0;shadow=1;labelBackgroundColor=none;strokeWidth=1;fontFamily=Verdana;fontSize=8;align=center;" vertex="1" parent="1">
          <mxGeometry x="850" y="2720" width="120" height="40" as="geometry" />
        </mxCell>
        <mxCell id="8hQfOiwvWAjv1FpIQdZN-94" value="Antwortoptionen aktualisieren" style="whiteSpace=wrap;html=1;rounded=0;shadow=1;labelBackgroundColor=none;strokeWidth=1;fontFamily=Verdana;fontSize=8;align=center;" vertex="1" parent="1">
          <mxGeometry x="949.75" y="3080" width="120" height="40" as="geometry" />
        </mxCell>
        <mxCell id="8hQfOiwvWAjv1FpIQdZN-95" value="View: Bibliothek" style="strokeWidth=1;html=1;shape=mxgraph.flowchart.terminator;whiteSpace=wrap;fontFamily=Verdana;fontSize=8;fontColor=default;labelBackgroundColor=none;resizable=0;rounded=0;shadow=1;strokeColor=default;align=center;verticalAlign=middle;fillColor=default;" vertex="1" parent="1">
          <mxGeometry x="959.75" y="2945" width="100" height="60" as="geometry" />
        </mxCell>
        <mxCell id="8hQfOiwvWAjv1FpIQdZN-96" style="edgeStyle=orthogonalEdgeStyle;rounded=0;orthogonalLoop=1;jettySize=auto;html=1;shadow=1;strokeColor=default;strokeWidth=1;align=center;verticalAlign=middle;fontFamily=Verdana;fontSize=8;fontColor=default;labelBackgroundColor=none;endArrow=classic;fillColor=default;exitX=0.5;exitY=1;exitDx=0;exitDy=0;entryX=0;entryY=0.5;entryDx=0;entryDy=0;" edge="1" parent="1" source="8hQfOiwvWAjv1FpIQdZN-104" target="8hQfOiwvWAjv1FpIQdZN-109">
          <mxGeometry relative="1" as="geometry">
            <mxPoint x="330.02" y="2930.75" as="sourcePoint" />
          </mxGeometry>
        </mxCell>
        <mxCell id="8hQfOiwvWAjv1FpIQdZN-97" value="&lt;span style=&quot;color: rgba(0, 0, 0, 0); font-family: monospace; font-size: 0px; text-align: start;&quot;&gt;%3CmxGraphModel%3E%3Croot%3E%3CmxCell%20id%3D%220%22%2F%3E%3CmxCell%20id%3D%221%22%20parent%3D%220%22%2F%3E%3CmxCell%20id%3D%222%22%20value%3D%22Fragenpool%20%26lt%3Bbr%26gt%3Bhinzuf%C3%BCgen%22%20style%3D%22edgeLabel%3Bhtml%3D1%3Balign%3Dcenter%3BverticalAlign%3Dmiddle%3Bresizable%3D0%3Bpoints%3D%5B%5D%3BfontFamily%3DVerdana%3BfontSize%3D8%3BfontColor%3Ddefault%3BlabelBackgroundColor%3Dnone%3B%22%20vertex%3D%221%22%20connectable%3D%220%22%20parent%3D%221%22%3E%3CmxGeometry%20x%3D%22140%22%20y%3D%222790%22%20as%3D%22geometry%22%2F%3E%3C%2FmxCell%3E%3C%2Froot%3E%3C%2FmxGraphModel%3EFra&lt;/span&gt;" style="edgeLabel;html=1;align=center;verticalAlign=middle;resizable=0;points=[];fontFamily=Verdana;fontSize=8;fontColor=default;labelBackgroundColor=none;" vertex="1" connectable="0" parent="8hQfOiwvWAjv1FpIQdZN-96">
          <mxGeometry x="-0.6293" y="-3" relative="1" as="geometry">
            <mxPoint as="offset" />
          </mxGeometry>
        </mxCell>
        <mxCell id="8hQfOiwvWAjv1FpIQdZN-98" value="&lt;br&gt;&lt;span style=&quot;color: rgb(240, 240, 240); font-family: Verdana; font-size: 8px; font-style: normal; font-variant-ligatures: normal; font-variant-caps: normal; font-weight: 400; letter-spacing: normal; orphans: 2; text-align: center; text-indent: 0px; text-transform: none; widows: 2; word-spacing: 0px; -webkit-text-stroke-width: 0px; white-space: nowrap; background-color: rgb(27, 29, 30); text-decoration-thickness: initial; text-decoration-style: initial; text-decoration-color: initial; display: inline !important; float: none;&quot;&gt;Antwortoptionen &lt;br&gt;lÃ¶schen&lt;/span&gt;&lt;div&gt;&lt;br/&gt;&lt;/div&gt;" style="edgeLabel;html=1;align=center;verticalAlign=middle;resizable=0;points=[];fontFamily=Verdana;fontSize=8;fontColor=default;labelBackgroundColor=none;" vertex="1" connectable="0" parent="8hQfOiwvWAjv1FpIQdZN-96">
          <mxGeometry x="-0.3366" y="1" relative="1" as="geometry">
            <mxPoint x="-31" as="offset" />
          </mxGeometry>
        </mxCell>
        <mxCell id="8hQfOiwvWAjv1FpIQdZN-99" style="edgeStyle=orthogonalEdgeStyle;rounded=0;orthogonalLoop=1;jettySize=auto;html=1;entryX=0.5;entryY=1;entryDx=0;entryDy=0;strokeColor=default;strokeWidth=1;align=center;verticalAlign=middle;fontFamily=Verdana;fontSize=8;fontColor=default;labelBackgroundColor=none;resizable=0;endArrow=classic;fillColor=none;gradientColor=none;" edge="1" parent="1" source="8hQfOiwvWAjv1FpIQdZN-100" target="8hQfOiwvWAjv1FpIQdZN-94">
          <mxGeometry relative="1" as="geometry" />
        </mxCell>
        <mxCell id="8hQfOiwvWAjv1FpIQdZN-100" value="Antwortoption lÃ¶schen" style="whiteSpace=wrap;html=1;rounded=0;shadow=1;labelBackgroundColor=none;strokeWidth=1;fontFamily=Verdana;fontSize=8;align=center;direction=west;" vertex="1" parent="1">
          <mxGeometry x="720" y="3170" width="120" height="40" as="geometry" />
        </mxCell>
        <mxCell id="8hQfOiwvWAjv1FpIQdZN-101" style="edgeStyle=orthogonalEdgeStyle;rounded=0;orthogonalLoop=1;jettySize=auto;html=1;strokeColor=default;strokeWidth=1;align=center;verticalAlign=middle;fontFamily=Verdana;fontSize=8;fontColor=default;labelBackgroundColor=none;resizable=0;endArrow=classic;fillColor=none;gradientColor=none;exitX=1;exitY=0.5;exitDx=0;exitDy=0;entryX=0.5;entryY=0;entryDx=0;entryDy=0;entryPerimeter=0;" edge="1" parent="1" source="8hQfOiwvWAjv1FpIQdZN-93" target="8hQfOiwvWAjv1FpIQdZN-95">
          <mxGeometry relative="1" as="geometry">
            <mxPoint x="976.0344827586209" y="2760" as="sourcePoint" />
            <mxPoint x="1009.75" y="2850" as="targetPoint" />
          </mxGeometry>
        </mxCell>
        <mxCell id="8hQfOiwvWAjv1FpIQdZN-102" style="edgeStyle=orthogonalEdgeStyle;rounded=0;orthogonalLoop=1;jettySize=auto;html=1;entryX=0;entryY=0.5;entryDx=0;entryDy=0;strokeColor=default;strokeWidth=1;align=center;verticalAlign=middle;fontFamily=Verdana;fontSize=8;fontColor=default;labelBackgroundColor=none;resizable=0;endArrow=classic;fillColor=none;gradientColor=none;exitX=0.5;exitY=0;exitDx=0;exitDy=0;" edge="1" parent="1" source="8hQfOiwvWAjv1FpIQdZN-104" target="8hQfOiwvWAjv1FpIQdZN-90">
          <mxGeometry relative="1" as="geometry">
            <mxPoint x="330.02" y="2870.75" as="sourcePoint" />
          </mxGeometry>
        </mxCell>
        <mxCell id="8hQfOiwvWAjv1FpIQdZN-103" value="Antwortoptionen&lt;br&gt;hinzufÃ¼gen/&lt;br&gt;Ã¤ndern" style="edgeLabel;html=1;align=center;verticalAlign=middle;resizable=0;points=[];fontFamily=Verdana;fontSize=8;fontColor=default;labelBackgroundColor=none;" vertex="1" connectable="0" parent="8hQfOiwvWAjv1FpIQdZN-102">
          <mxGeometry x="-0.4368" y="1" relative="1" as="geometry">
            <mxPoint x="-35" y="37" as="offset" />
          </mxGeometry>
        </mxCell>
        <mxCell id="8hQfOiwvWAjv1FpIQdZN-104" value="Absicht" style="rhombus;whiteSpace=wrap;html=1;rounded=0;shadow=1;labelBackgroundColor=none;strokeWidth=1;fontFamily=Verdana;fontSize=8;align=center;" vertex="1" parent="1">
          <mxGeometry x="160" y="2980" width="100" height="60" as="geometry" />
        </mxCell>
        <mxCell id="8hQfOiwvWAjv1FpIQdZN-105" style="edgeStyle=orthogonalEdgeStyle;rounded=0;orthogonalLoop=1;jettySize=auto;html=1;entryX=0.5;entryY=1;entryDx=0;entryDy=0;entryPerimeter=0;strokeColor=default;strokeWidth=1;align=center;verticalAlign=middle;fontFamily=Verdana;fontSize=8;fontColor=default;labelBackgroundColor=none;resizable=0;endArrow=classic;fillColor=none;gradientColor=none;" edge="1" parent="1" source="8hQfOiwvWAjv1FpIQdZN-94" target="8hQfOiwvWAjv1FpIQdZN-95">
          <mxGeometry relative="1" as="geometry" />
        </mxCell>
        <mxCell id="8hQfOiwvWAjv1FpIQdZN-106" style="edgeStyle=orthogonalEdgeStyle;rounded=0;orthogonalLoop=1;jettySize=auto;html=1;entryX=0.5;entryY=0;entryDx=0;entryDy=0;strokeColor=default;strokeWidth=1;align=center;verticalAlign=middle;fontFamily=Verdana;fontSize=8;fontColor=default;labelBackgroundColor=none;resizable=0;endArrow=classic;fillColor=none;gradientColor=none;" edge="1" parent="1" source="8hQfOiwvWAjv1FpIQdZN-107" target="8hQfOiwvWAjv1FpIQdZN-154">
          <mxGeometry relative="1" as="geometry" />
        </mxCell>
        <mxCell id="8hQfOiwvWAjv1FpIQdZN-107" value="Klick [Pool X]" style="whiteSpace=wrap;html=1;rounded=0;shadow=1;labelBackgroundColor=none;strokeWidth=1;fontFamily=Verdana;fontSize=8;align=center;" vertex="1" parent="1">
          <mxGeometry x="15" y="2895.75" width="120" height="40" as="geometry" />
        </mxCell>
        <mxCell id="8hQfOiwvWAjv1FpIQdZN-108" style="edgeStyle=orthogonalEdgeStyle;rounded=0;orthogonalLoop=1;jettySize=auto;html=1;entryX=1;entryY=0.5;entryDx=0;entryDy=0;strokeColor=default;strokeWidth=1;align=center;verticalAlign=middle;fontFamily=Verdana;fontSize=8;fontColor=default;labelBackgroundColor=none;resizable=0;endArrow=classic;fillColor=none;gradientColor=none;" edge="1" parent="1" source="8hQfOiwvWAjv1FpIQdZN-109" target="8hQfOiwvWAjv1FpIQdZN-100">
          <mxGeometry relative="1" as="geometry">
            <mxPoint x="392.24" y="3070.75" as="targetPoint" />
          </mxGeometry>
        </mxCell>
        <mxCell id="8hQfOiwvWAjv1FpIQdZN-109" value="Klick [&#39;Rotes X&#39;] bei Antwortoption x" style="whiteSpace=wrap;html=1;rounded=0;shadow=1;labelBackgroundColor=none;strokeWidth=1;fontFamily=Verdana;fontSize=8;align=center;" vertex="1" parent="1">
          <mxGeometry x="240" y="3170" width="120" height="40" as="geometry" />
        </mxCell>
        <mxCell id="8hQfOiwvWAjv1FpIQdZN-110" value="&lt;pre&gt;&lt;span style=&quot;font-family: Helvetica; white-space: normal;&quot;&gt;&lt;font style=&quot;font-size: 15px;&quot;&gt;UF6 - (as default) Antworten erstellen / Namen Ã¤ndern / lÃ¶schen&amp;nbsp;&lt;/font&gt;&lt;/span&gt;&lt;/pre&gt;" style="text;whiteSpace=wrap;html=1;strokeColor=default;verticalAlign=middle;spacing=2;labelPosition=center;verticalLabelPosition=middle;align=center;" vertex="1" parent="1">
          <mxGeometry x="10" y="3410" width="210" height="60" as="geometry" />
        </mxCell>
        <mxCell id="8hQfOiwvWAjv1FpIQdZN-111" value="" style="text;html=1;align=center;verticalAlign=middle;whiteSpace=wrap;rounded=0;strokeColor=default;fontSize=9;" vertex="1" parent="1">
          <mxGeometry x="230" y="3410" width="420" height="60" as="geometry" />
        </mxCell>
        <mxCell id="8hQfOiwvWAjv1FpIQdZN-112" value="Views:&lt;div style=&quot;font-size: 8px;&quot;&gt;&lt;ul style=&quot;font-size: 8px;&quot;&gt;&lt;li style=&quot;font-size: 8px;&quot;&gt;Bibliothek&lt;/li&gt;&lt;/ul&gt;&lt;/div&gt;" style="text;html=1;align=left;verticalAlign=top;whiteSpace=wrap;rounded=0;textShadow=0;strokeColor=default;fontSize=8;" vertex="1" parent="1">
          <mxGeometry x="670" y="3410" width="420" height="60" as="geometry" />
        </mxCell>
        <mxCell id="8hQfOiwvWAjv1FpIQdZN-113" style="edgeStyle=orthogonalEdgeStyle;rounded=0;orthogonalLoop=1;jettySize=auto;html=1;entryX=0.5;entryY=0;entryDx=0;entryDy=0;strokeColor=default;strokeWidth=1;align=center;verticalAlign=middle;fontFamily=Verdana;fontSize=8;fontColor=default;labelBackgroundColor=none;resizable=0;endArrow=classic;fillColor=none;gradientColor=none;exitX=0.5;exitY=1;exitDx=0;exitDy=0;exitPerimeter=0;" edge="1" parent="1" source="8hQfOiwvWAjv1FpIQdZN-114" target="8hQfOiwvWAjv1FpIQdZN-148">
          <mxGeometry relative="1" as="geometry" />
        </mxCell>
        <mxCell id="8hQfOiwvWAjv1FpIQdZN-114" value="View: Bibliothek&lt;br&gt;(as default)" style="strokeWidth=1;html=1;shape=mxgraph.flowchart.start_2;whiteSpace=wrap;rounded=0;shadow=1;strokeColor=default;align=center;verticalAlign=middle;fontFamily=Verdana;fontSize=8;fontColor=default;labelBackgroundColor=none;fillColor=default;" vertex="1" parent="1">
          <mxGeometry x="45" y="3600.75" width="60" height="60" as="geometry" />
        </mxCell>
        <mxCell id="8hQfOiwvWAjv1FpIQdZN-115" value="" style="edgeStyle=orthogonalEdgeStyle;rounded=0;orthogonalLoop=1;jettySize=auto;html=1;entryX=0;entryY=0.5;entryDx=0;entryDy=0;" edge="1" parent="1" source="8hQfOiwvWAjv1FpIQdZN-116" target="8hQfOiwvWAjv1FpIQdZN-117">
          <mxGeometry relative="1" as="geometry" />
        </mxCell>
        <mxCell id="8hQfOiwvWAjv1FpIQdZN-116" value="Klick [Frage hinzufÃ¼gen]" style="whiteSpace=wrap;html=1;rounded=0;shadow=1;labelBackgroundColor=none;strokeWidth=1;fontFamily=Verdana;fontSize=8;align=center;" vertex="1" parent="1">
          <mxGeometry x="260" y="3570" width="120" height="40" as="geometry" />
        </mxCell>
        <mxCell id="8hQfOiwvWAjv1FpIQdZN-117" value="Eingabe &amp;lt;Frage&amp;gt;" style="whiteSpace=wrap;html=1;rounded=0;shadow=1;labelBackgroundColor=none;strokeWidth=1;fontFamily=Verdana;fontSize=8;align=center;" vertex="1" parent="1">
          <mxGeometry x="425" y="3570" width="120" height="40" as="geometry" />
        </mxCell>
        <mxCell id="8hQfOiwvWAjv1FpIQdZN-118" style="edgeStyle=orthogonalEdgeStyle;rounded=0;orthogonalLoop=1;jettySize=auto;html=1;entryX=0;entryY=0.5;entryDx=0;entryDy=0;shadow=1;strokeColor=default;strokeWidth=1;align=center;verticalAlign=middle;fontFamily=Verdana;fontSize=8;fontColor=default;labelBackgroundColor=none;endArrow=classic;fillColor=default;exitX=1;exitY=0.5;exitDx=0;exitDy=0;" edge="1" parent="1" source="8hQfOiwvWAjv1FpIQdZN-117" target="8hQfOiwvWAjv1FpIQdZN-120">
          <mxGeometry relative="1" as="geometry">
            <mxPoint x="640" y="3590" as="sourcePoint" />
          </mxGeometry>
        </mxCell>
        <mxCell id="8hQfOiwvWAjv1FpIQdZN-119" style="edgeStyle=orthogonalEdgeStyle;rounded=0;orthogonalLoop=1;jettySize=auto;html=1;entryX=0;entryY=0.5;entryDx=0;entryDy=0;strokeColor=default;strokeWidth=1;align=center;verticalAlign=middle;fontFamily=Verdana;fontSize=8;fontColor=default;labelBackgroundColor=none;resizable=0;endArrow=classic;fillColor=none;gradientColor=none;" edge="1" parent="1" source="8hQfOiwvWAjv1FpIQdZN-120" target="8hQfOiwvWAjv1FpIQdZN-136">
          <mxGeometry relative="1" as="geometry" />
        </mxCell>
        <mxCell id="8hQfOiwvWAjv1FpIQdZN-120" value="Frage anlegen" style="whiteSpace=wrap;html=1;rounded=0;shadow=1;labelBackgroundColor=none;strokeWidth=1;fontFamily=Verdana;fontSize=8;align=center;" vertex="1" parent="1">
          <mxGeometry x="588.01" y="3570" width="120" height="40" as="geometry" />
        </mxCell>
        <mxCell id="8hQfOiwvWAjv1FpIQdZN-121" value="Liste der Fragen aktualisieren" style="whiteSpace=wrap;html=1;rounded=0;shadow=1;labelBackgroundColor=none;strokeWidth=1;fontFamily=Verdana;fontSize=8;align=center;" vertex="1" parent="1">
          <mxGeometry x="949.75" y="3840" width="120" height="40" as="geometry" />
        </mxCell>
        <mxCell id="8hQfOiwvWAjv1FpIQdZN-122" value="View: Bibliothek" style="strokeWidth=1;html=1;shape=mxgraph.flowchart.terminator;whiteSpace=wrap;fontFamily=Verdana;fontSize=8;fontColor=default;labelBackgroundColor=none;resizable=0;rounded=0;shadow=1;strokeColor=default;align=center;verticalAlign=middle;fillColor=default;" vertex="1" parent="1">
          <mxGeometry x="959.75" y="3660.75" width="100" height="60" as="geometry" />
        </mxCell>
        <mxCell id="8hQfOiwvWAjv1FpIQdZN-123" style="edgeStyle=orthogonalEdgeStyle;rounded=0;orthogonalLoop=1;jettySize=auto;html=1;shadow=1;strokeColor=default;strokeWidth=1;align=center;verticalAlign=middle;fontFamily=Verdana;fontSize=8;fontColor=default;labelBackgroundColor=none;endArrow=classic;fillColor=default;exitX=0.5;exitY=1;exitDx=0;exitDy=0;entryX=0;entryY=0.5;entryDx=0;entryDy=0;" edge="1" parent="1" source="8hQfOiwvWAjv1FpIQdZN-140" target="8hQfOiwvWAjv1FpIQdZN-152">
          <mxGeometry relative="1" as="geometry">
            <mxPoint x="330.02" y="3780.75" as="sourcePoint" />
          </mxGeometry>
        </mxCell>
        <mxCell id="8hQfOiwvWAjv1FpIQdZN-124" value="&lt;span style=&quot;color: rgba(0, 0, 0, 0); font-family: monospace; font-size: 0px; text-align: start;&quot;&gt;%3CmxGraphModel%3E%3Croot%3E%3CmxCell%20id%3D%220%22%2F%3E%3CmxCell%20id%3D%221%22%20parent%3D%220%22%2F%3E%3CmxCell%20id%3D%222%22%20value%3D%22Fragenpool%20%26lt%3Bbr%26gt%3Bhinzuf%C3%BCgen%22%20style%3D%22edgeLabel%3Bhtml%3D1%3Balign%3Dcenter%3BverticalAlign%3Dmiddle%3Bresizable%3D0%3Bpoints%3D%5B%5D%3BfontFamily%3DVerdana%3BfontSize%3D8%3BfontColor%3Ddefault%3BlabelBackgroundColor%3Dnone%3B%22%20vertex%3D%221%22%20connectable%3D%220%22%20parent%3D%221%22%3E%3CmxGeometry%20x%3D%22140%22%20y%3D%222790%22%20as%3D%22geometry%22%2F%3E%3C%2FmxCell%3E%3C%2Froot%3E%3C%2FmxGraphModel%3EFra&lt;/span&gt;" style="edgeLabel;html=1;align=center;verticalAlign=middle;resizable=0;points=[];fontFamily=Verdana;fontSize=8;fontColor=default;labelBackgroundColor=none;" vertex="1" connectable="0" parent="8hQfOiwvWAjv1FpIQdZN-123">
          <mxGeometry x="-0.6293" y="-3" relative="1" as="geometry">
            <mxPoint as="offset" />
          </mxGeometry>
        </mxCell>
        <mxCell id="8hQfOiwvWAjv1FpIQdZN-125" value="Fragen&lt;br&gt;lÃ¶schen" style="edgeLabel;html=1;align=center;verticalAlign=middle;resizable=0;points=[];fontFamily=Verdana;fontSize=8;fontColor=default;labelBackgroundColor=none;" vertex="1" connectable="0" parent="8hQfOiwvWAjv1FpIQdZN-123">
          <mxGeometry x="-0.3366" y="1" relative="1" as="geometry">
            <mxPoint x="-31" as="offset" />
          </mxGeometry>
        </mxCell>
        <mxCell id="8hQfOiwvWAjv1FpIQdZN-126" style="edgeStyle=orthogonalEdgeStyle;rounded=0;orthogonalLoop=1;jettySize=auto;html=1;entryX=0;entryY=0.5;entryDx=0;entryDy=0;strokeColor=default;strokeWidth=1;align=center;verticalAlign=middle;fontFamily=Verdana;fontSize=8;fontColor=default;labelBackgroundColor=none;resizable=0;endArrow=classic;fillColor=none;gradientColor=none;" edge="1" parent="1" source="8hQfOiwvWAjv1FpIQdZN-127" target="8hQfOiwvWAjv1FpIQdZN-142">
          <mxGeometry relative="1" as="geometry" />
        </mxCell>
        <mxCell id="8hQfOiwvWAjv1FpIQdZN-127" value="Klick [Frage X]" style="whiteSpace=wrap;html=1;rounded=0;shadow=1;labelBackgroundColor=none;strokeWidth=1;fontFamily=Verdana;fontSize=8;align=center;" vertex="1" parent="1">
          <mxGeometry x="276.02" y="3745.75" width="120" height="40" as="geometry" />
        </mxCell>
        <mxCell id="8hQfOiwvWAjv1FpIQdZN-128" style="edgeStyle=orthogonalEdgeStyle;rounded=0;orthogonalLoop=1;jettySize=auto;html=1;entryX=1;entryY=0.5;entryDx=0;entryDy=0;strokeColor=default;strokeWidth=1;align=center;verticalAlign=middle;fontFamily=Verdana;fontSize=8;fontColor=default;labelBackgroundColor=none;resizable=0;endArrow=classic;fillColor=none;gradientColor=none;" edge="1" parent="1" source="8hQfOiwvWAjv1FpIQdZN-129" target="8hQfOiwvWAjv1FpIQdZN-144">
          <mxGeometry relative="1" as="geometry" />
        </mxCell>
        <mxCell id="8hQfOiwvWAjv1FpIQdZN-129" value="Klick [Frage lÃ¶schen]" style="whiteSpace=wrap;html=1;rounded=0;shadow=1;labelBackgroundColor=none;strokeWidth=1;fontFamily=Verdana;fontSize=8;align=center;" vertex="1" parent="1">
          <mxGeometry x="392.24" y="3900.75" width="120" height="40" as="geometry" />
        </mxCell>
        <mxCell id="8hQfOiwvWAjv1FpIQdZN-130" value="Klick [LÃ¶schen bestÃ¤tigen]" style="whiteSpace=wrap;html=1;rounded=0;shadow=1;labelBackgroundColor=none;strokeWidth=1;fontFamily=Verdana;fontSize=8;align=center;direction=west;" vertex="1" parent="1">
          <mxGeometry x="695.52" y="3900.75" width="120" height="40" as="geometry" />
        </mxCell>
        <mxCell id="8hQfOiwvWAjv1FpIQdZN-131" value="Ja" style="edgeStyle=orthogonalEdgeStyle;rounded=0;orthogonalLoop=1;jettySize=auto;html=1;entryX=1;entryY=0.5;entryDx=0;entryDy=0;strokeColor=default;strokeWidth=1;align=center;verticalAlign=middle;fontFamily=Verdana;fontSize=8;fontColor=default;labelBackgroundColor=none;resizable=0;endArrow=classic;fillColor=none;gradientColor=none;" edge="1" parent="1" source="8hQfOiwvWAjv1FpIQdZN-132" target="8hQfOiwvWAjv1FpIQdZN-134">
          <mxGeometry x="0.3044" y="10" relative="1" as="geometry">
            <mxPoint as="offset" />
          </mxGeometry>
        </mxCell>
        <mxCell id="8hQfOiwvWAjv1FpIQdZN-132" value="bestÃ¤tigt?" style="strokeWidth=1;html=1;shape=mxgraph.flowchart.decision;whiteSpace=wrap;rounded=0;shadow=1;strokeColor=default;align=center;verticalAlign=middle;fontFamily=Verdana;fontSize=8;fontColor=default;labelBackgroundColor=none;fillColor=default;" vertex="1" parent="1">
          <mxGeometry x="840" y="3897.25" width="67.51" height="47" as="geometry" />
        </mxCell>
        <mxCell id="8hQfOiwvWAjv1FpIQdZN-133" style="edgeStyle=orthogonalEdgeStyle;rounded=0;orthogonalLoop=1;jettySize=auto;html=1;entryX=0.5;entryY=1;entryDx=0;entryDy=0;strokeColor=default;strokeWidth=1;align=center;verticalAlign=middle;fontFamily=Verdana;fontSize=8;fontColor=default;labelBackgroundColor=none;resizable=0;endArrow=classic;fillColor=none;gradientColor=none;" edge="1" parent="1" source="8hQfOiwvWAjv1FpIQdZN-134" target="8hQfOiwvWAjv1FpIQdZN-121">
          <mxGeometry relative="1" as="geometry" />
        </mxCell>
        <mxCell id="8hQfOiwvWAjv1FpIQdZN-134" value="Frage lÃ¶schen&lt;span style=&quot;color: rgba(0, 0, 0, 0); font-family: monospace; font-size: 0px; text-align: start; text-wrap: nowrap;&quot;&gt;%3CmxGraphModel%3E%3Croot%3E%3CmxCell%20id%3D%220%22%2F%3E%3CmxCell%20id%3D%221%22%20parent%3D%220%22%2F%3E%3CmxCell%20id%3D%222%22%20value%3D%22L%C3%B6schen%20best%C3%A4tigen%22%20style%3D%22whiteSpace%3Dwrap%3Bhtml%3D1%3Brounded%3D0%3Bshadow%3D1%3BlabelBackgroundColor%3Dnone%3BstrokeWidth%3D1%3BfontFamily%3DVerdana%3BfontSize%3D8%3Balign%3Dcenter%3Bdirection%3Dwest%3B%22%20vertex%3D%221%22%20parent%3D%221%22%3E%3CmxGeometry%20x%3D%22890%22%20y%3D%222180%22%20width%3D%22120%22%20height%3D%2240%22%20as%3D%22geometry%22%2F%3E%3C%2FmxCell%3E%3C%2Froot%3E%3C%2FmxGraphModel%3E&lt;/span&gt;" style="whiteSpace=wrap;html=1;rounded=0;shadow=1;labelBackgroundColor=none;strokeWidth=1;fontFamily=Verdana;fontSize=8;align=center;direction=west;" vertex="1" parent="1">
          <mxGeometry x="949.75" y="3900.75" width="120" height="40" as="geometry" />
        </mxCell>
        <mxCell id="8hQfOiwvWAjv1FpIQdZN-135" style="edgeStyle=orthogonalEdgeStyle;rounded=0;orthogonalLoop=1;jettySize=auto;html=1;strokeColor=default;strokeWidth=1;align=center;verticalAlign=middle;fontFamily=Verdana;fontSize=8;fontColor=default;labelBackgroundColor=none;resizable=0;endArrow=classic;fillColor=none;gradientColor=none;" edge="1" parent="1" source="8hQfOiwvWAjv1FpIQdZN-136" target="8hQfOiwvWAjv1FpIQdZN-122">
          <mxGeometry relative="1" as="geometry" />
        </mxCell>
        <mxCell id="8hQfOiwvWAjv1FpIQdZN-136" value="Liste der Fragen aktualisieren und die erstellte Frage auswÃ¤hlen" style="whiteSpace=wrap;html=1;rounded=0;shadow=1;labelBackgroundColor=none;strokeWidth=1;fontFamily=Verdana;fontSize=8;align=center;" vertex="1" parent="1">
          <mxGeometry x="750.04" y="3570" width="120" height="40" as="geometry" />
        </mxCell>
        <mxCell id="8hQfOiwvWAjv1FpIQdZN-137" style="edgeStyle=orthogonalEdgeStyle;rounded=0;orthogonalLoop=1;jettySize=auto;html=1;entryX=0;entryY=0.5;entryDx=0;entryDy=0;strokeColor=default;strokeWidth=1;align=center;verticalAlign=middle;fontFamily=Verdana;fontSize=8;fontColor=default;labelBackgroundColor=none;resizable=0;endArrow=classic;fillColor=none;gradientColor=none;exitX=0.5;exitY=0;exitDx=0;exitDy=0;" edge="1" parent="1" source="8hQfOiwvWAjv1FpIQdZN-140" target="8hQfOiwvWAjv1FpIQdZN-116">
          <mxGeometry relative="1" as="geometry">
            <mxPoint x="330.02" y="3720.75" as="sourcePoint" />
          </mxGeometry>
        </mxCell>
        <mxCell id="8hQfOiwvWAjv1FpIQdZN-138" value="Frage&lt;br&gt;hinzufÃ¼gen" style="edgeLabel;html=1;align=center;verticalAlign=middle;resizable=0;points=[];fontFamily=Verdana;fontSize=8;fontColor=default;labelBackgroundColor=none;" vertex="1" connectable="0" parent="8hQfOiwvWAjv1FpIQdZN-137">
          <mxGeometry x="-0.4368" y="1" relative="1" as="geometry">
            <mxPoint x="-29" y="25" as="offset" />
          </mxGeometry>
        </mxCell>
        <mxCell id="8hQfOiwvWAjv1FpIQdZN-139" value="Name der &lt;br&gt;Frage Ã¤ndern" style="edgeStyle=orthogonalEdgeStyle;rounded=0;orthogonalLoop=1;jettySize=auto;html=1;strokeColor=default;strokeWidth=1;align=center;verticalAlign=middle;fontFamily=Verdana;fontSize=8;fontColor=default;labelBackgroundColor=none;resizable=0;endArrow=classic;fillColor=none;gradientColor=none;exitX=1;exitY=0.5;exitDx=0;exitDy=0;entryX=0;entryY=0.5;entryDx=0;entryDy=0;" edge="1" parent="1" source="8hQfOiwvWAjv1FpIQdZN-140" target="8hQfOiwvWAjv1FpIQdZN-127">
          <mxGeometry x="-1" y="36" relative="1" as="geometry">
            <mxPoint as="offset" />
            <mxPoint x="380.02" y="3750.75" as="sourcePoint" />
            <mxPoint x="280" y="3800" as="targetPoint" />
            <Array as="points">
              <mxPoint x="270" y="3766" />
              <mxPoint x="270" y="3766" />
            </Array>
          </mxGeometry>
        </mxCell>
        <mxCell id="8hQfOiwvWAjv1FpIQdZN-140" value="Absicht" style="rhombus;whiteSpace=wrap;html=1;rounded=0;shadow=1;labelBackgroundColor=none;strokeWidth=1;fontFamily=Verdana;fontSize=8;align=center;" vertex="1" parent="1">
          <mxGeometry x="160" y="3735.75" width="100" height="60" as="geometry" />
        </mxCell>
        <mxCell id="8hQfOiwvWAjv1FpIQdZN-141" style="edgeStyle=orthogonalEdgeStyle;rounded=0;orthogonalLoop=1;jettySize=auto;html=1;strokeColor=default;strokeWidth=1;align=center;verticalAlign=middle;fontFamily=Verdana;fontSize=8;fontColor=default;labelBackgroundColor=none;resizable=0;endArrow=classic;fillColor=none;gradientColor=none;entryX=0;entryY=0.5;entryDx=0;entryDy=0;" edge="1" parent="1" source="8hQfOiwvWAjv1FpIQdZN-142" target="8hQfOiwvWAjv1FpIQdZN-150">
          <mxGeometry relative="1" as="geometry">
            <mxPoint x="590" y="3765.75" as="targetPoint" />
          </mxGeometry>
        </mxCell>
        <mxCell id="8hQfOiwvWAjv1FpIQdZN-142" value="Klick [Frage Ã¤ndern]" style="whiteSpace=wrap;html=1;rounded=0;shadow=1;labelBackgroundColor=none;strokeWidth=1;fontFamily=Verdana;fontSize=8;align=center;" vertex="1" parent="1">
          <mxGeometry x="433.76" y="3745.75" width="120" height="40" as="geometry" />
        </mxCell>
        <mxCell id="8hQfOiwvWAjv1FpIQdZN-143" style="edgeStyle=orthogonalEdgeStyle;rounded=0;orthogonalLoop=1;jettySize=auto;html=1;entryX=1;entryY=0.5;entryDx=0;entryDy=0;strokeColor=default;strokeWidth=1;align=center;verticalAlign=middle;fontFamily=Verdana;fontSize=8;fontColor=default;labelBackgroundColor=none;resizable=0;endArrow=classic;fillColor=none;gradientColor=none;" edge="1" parent="1" source="8hQfOiwvWAjv1FpIQdZN-144" target="8hQfOiwvWAjv1FpIQdZN-130">
          <mxGeometry relative="1" as="geometry" />
        </mxCell>
        <mxCell id="8hQfOiwvWAjv1FpIQdZN-144" value="Anzeige LÃ¶schhinweis" style="whiteSpace=wrap;html=1;rounded=0;shadow=1;labelBackgroundColor=none;strokeWidth=1;fontFamily=Verdana;fontSize=8;align=center;direction=west;" vertex="1" parent="1">
          <mxGeometry x="545" y="3900.75" width="120" height="40" as="geometry" />
        </mxCell>
        <mxCell id="8hQfOiwvWAjv1FpIQdZN-145" style="edgeStyle=orthogonalEdgeStyle;rounded=0;orthogonalLoop=1;jettySize=auto;html=1;entryX=0;entryY=0.5;entryDx=0;entryDy=0;entryPerimeter=0;strokeColor=default;strokeWidth=1;align=center;verticalAlign=middle;fontFamily=Verdana;fontSize=8;fontColor=default;labelBackgroundColor=none;resizable=0;endArrow=classic;fillColor=none;gradientColor=none;" edge="1" parent="1" source="8hQfOiwvWAjv1FpIQdZN-130" target="8hQfOiwvWAjv1FpIQdZN-132">
          <mxGeometry relative="1" as="geometry" />
        </mxCell>
        <mxCell id="8hQfOiwvWAjv1FpIQdZN-146" style="edgeStyle=orthogonalEdgeStyle;rounded=0;orthogonalLoop=1;jettySize=auto;html=1;entryX=0.5;entryY=1;entryDx=0;entryDy=0;entryPerimeter=0;strokeColor=default;strokeWidth=1;align=center;verticalAlign=middle;fontFamily=Verdana;fontSize=8;fontColor=default;labelBackgroundColor=none;resizable=0;endArrow=classic;fillColor=none;gradientColor=none;" edge="1" parent="1" source="8hQfOiwvWAjv1FpIQdZN-121" target="8hQfOiwvWAjv1FpIQdZN-122">
          <mxGeometry relative="1" as="geometry" />
        </mxCell>
        <mxCell id="8hQfOiwvWAjv1FpIQdZN-147" style="edgeStyle=orthogonalEdgeStyle;rounded=0;orthogonalLoop=1;jettySize=auto;html=1;entryX=0;entryY=0.5;entryDx=0;entryDy=0;entryPerimeter=0;strokeColor=default;strokeWidth=1;align=center;verticalAlign=middle;fontFamily=Verdana;fontSize=8;fontColor=default;labelBackgroundColor=none;resizable=0;endArrow=classic;fillColor=none;gradientColor=none;exitX=1;exitY=0.5;exitDx=0;exitDy=0;" edge="1" parent="1" source="8hQfOiwvWAjv1FpIQdZN-150" target="8hQfOiwvWAjv1FpIQdZN-122">
          <mxGeometry relative="1" as="geometry">
            <mxPoint x="710" y="3765.833333333333" as="sourcePoint" />
          </mxGeometry>
        </mxCell>
        <mxCell id="8hQfOiwvWAjv1FpIQdZN-148" value="Klick [Pool X]" style="whiteSpace=wrap;html=1;rounded=0;shadow=1;labelBackgroundColor=none;strokeWidth=1;fontFamily=Verdana;fontSize=8;align=center;" vertex="1" parent="1">
          <mxGeometry x="15" y="3745.75" width="120" height="40" as="geometry" />
        </mxCell>
        <mxCell id="8hQfOiwvWAjv1FpIQdZN-149" style="edgeStyle=orthogonalEdgeStyle;rounded=0;orthogonalLoop=1;jettySize=auto;html=1;entryX=0;entryY=0.5;entryDx=0;entryDy=0;strokeColor=default;strokeWidth=1;align=center;verticalAlign=middle;fontFamily=Verdana;fontSize=8;fontColor=default;labelBackgroundColor=none;resizable=0;endArrow=classic;fillColor=none;gradientColor=none;" edge="1" parent="1" source="8hQfOiwvWAjv1FpIQdZN-148" target="8hQfOiwvWAjv1FpIQdZN-140">
          <mxGeometry relative="1" as="geometry" />
        </mxCell>
        <mxCell id="8hQfOiwvWAjv1FpIQdZN-150" value="Liste der Fragen aktualisieren und die erstellte Frage auswÃ¤hlen" style="whiteSpace=wrap;html=1;rounded=0;shadow=1;labelBackgroundColor=none;strokeWidth=1;fontFamily=Verdana;fontSize=8;align=center;" vertex="1" parent="1">
          <mxGeometry x="590" y="3745.75" width="120" height="40" as="geometry" />
        </mxCell>
        <mxCell id="8hQfOiwvWAjv1FpIQdZN-151" style="edgeStyle=orthogonalEdgeStyle;rounded=0;orthogonalLoop=1;jettySize=auto;html=1;entryX=0;entryY=0.5;entryDx=0;entryDy=0;strokeColor=default;strokeWidth=1;align=center;verticalAlign=middle;fontFamily=Verdana;fontSize=8;fontColor=default;labelBackgroundColor=none;resizable=0;endArrow=classic;fillColor=none;gradientColor=none;" edge="1" parent="1" source="8hQfOiwvWAjv1FpIQdZN-152" target="8hQfOiwvWAjv1FpIQdZN-129">
          <mxGeometry relative="1" as="geometry" />
        </mxCell>
        <mxCell id="8hQfOiwvWAjv1FpIQdZN-152" value="Klick [Frage X]" style="whiteSpace=wrap;html=1;rounded=0;shadow=1;labelBackgroundColor=none;strokeWidth=1;fontFamily=Verdana;fontSize=8;align=center;" vertex="1" parent="1">
          <mxGeometry x="240" y="3900.75" width="120" height="40" as="geometry" />
        </mxCell>
        <mxCell id="8hQfOiwvWAjv1FpIQdZN-153" style="edgeStyle=orthogonalEdgeStyle;rounded=0;orthogonalLoop=1;jettySize=auto;html=1;entryX=0;entryY=0.5;entryDx=0;entryDy=0;strokeColor=default;strokeWidth=1;align=center;verticalAlign=middle;fontFamily=Verdana;fontSize=8;fontColor=default;labelBackgroundColor=none;resizable=0;endArrow=classic;fillColor=none;gradientColor=none;" edge="1" parent="1" source="8hQfOiwvWAjv1FpIQdZN-154" target="8hQfOiwvWAjv1FpIQdZN-104">
          <mxGeometry relative="1" as="geometry" />
        </mxCell>
        <mxCell id="8hQfOiwvWAjv1FpIQdZN-154" value="Klick [Frage X]" style="whiteSpace=wrap;html=1;rounded=0;shadow=1;labelBackgroundColor=none;strokeWidth=1;fontFamily=Verdana;fontSize=8;align=center;" vertex="1" parent="1">
          <mxGeometry x="15" y="2990" width="120" height="40" as="geometry" />
        </mxCell>
        <mxCell id="8hQfOiwvWAjv1FpIQdZN-155" style="edgeStyle=orthogonalEdgeStyle;rounded=0;orthogonalLoop=1;jettySize=auto;html=1;entryX=0.5;entryY=0;entryDx=0;entryDy=0;strokeColor=default;strokeWidth=1;align=center;verticalAlign=middle;fontFamily=Verdana;fontSize=8;fontColor=default;labelBackgroundColor=none;resizable=0;endArrow=classic;fillColor=none;gradientColor=none;exitX=0.5;exitY=0;exitDx=0;exitDy=0;" edge="1" parent="1" source="8hQfOiwvWAjv1FpIQdZN-159" target="8hQfOiwvWAjv1FpIQdZN-90">
          <mxGeometry relative="1" as="geometry">
            <Array as="points">
              <mxPoint x="765" y="2670" />
              <mxPoint x="320" y="2670" />
            </Array>
          </mxGeometry>
        </mxCell>
        <mxCell id="8hQfOiwvWAjv1FpIQdZN-156" value="Ja &lt;br&gt;(bis zu 4x)" style="edgeLabel;html=1;align=center;verticalAlign=middle;resizable=0;points=[];fontFamily=Verdana;fontSize=8;fontColor=default;labelBackgroundColor=none;" vertex="1" connectable="0" parent="8hQfOiwvWAjv1FpIQdZN-155">
          <mxGeometry x="-0.7926" y="1" relative="1" as="geometry">
            <mxPoint x="40" y="19" as="offset" />
          </mxGeometry>
        </mxCell>
        <mxCell id="8hQfOiwvWAjv1FpIQdZN-157" style="edgeStyle=orthogonalEdgeStyle;rounded=0;orthogonalLoop=1;jettySize=auto;html=1;entryX=0;entryY=0.5;entryDx=0;entryDy=0;strokeColor=default;strokeWidth=1;align=center;verticalAlign=middle;fontFamily=Verdana;fontSize=8;fontColor=default;labelBackgroundColor=none;resizable=0;endArrow=classic;fillColor=none;gradientColor=none;" edge="1" parent="1" source="8hQfOiwvWAjv1FpIQdZN-159" target="8hQfOiwvWAjv1FpIQdZN-93">
          <mxGeometry relative="1" as="geometry" />
        </mxCell>
        <mxCell id="8hQfOiwvWAjv1FpIQdZN-158" value="Nein" style="edgeLabel;html=1;align=center;verticalAlign=middle;resizable=0;points=[];fontFamily=Verdana;fontSize=8;fontColor=default;labelBackgroundColor=none;" vertex="1" connectable="0" parent="8hQfOiwvWAjv1FpIQdZN-157">
          <mxGeometry x="-0.6986" y="-1" relative="1" as="geometry">
            <mxPoint x="3" y="-11" as="offset" />
          </mxGeometry>
        </mxCell>
        <mxCell id="8hQfOiwvWAjv1FpIQdZN-159" value="Weitere &lt;br&gt;Antwortoption?" style="rhombus;whiteSpace=wrap;html=1;rounded=0;shadow=1;labelBackgroundColor=none;strokeWidth=1;fontFamily=Verdana;fontSize=8;align=center;" vertex="1" parent="1">
          <mxGeometry x="715.52" y="2710" width="100" height="60" as="geometry" />
        </mxCell>
        <mxCell id="8hQfOiwvWAjv1FpIQdZN-160" style="edgeStyle=orthogonalEdgeStyle;rounded=0;orthogonalLoop=1;jettySize=auto;html=1;entryX=0;entryY=0.5;entryDx=0;entryDy=0;strokeColor=default;strokeWidth=1;align=center;verticalAlign=middle;fontFamily=Verdana;fontSize=8;fontColor=default;labelBackgroundColor=none;resizable=0;endArrow=classic;fillColor=none;gradientColor=none;" edge="1" parent="1" source="8hQfOiwvWAjv1FpIQdZN-161" target="8hQfOiwvWAjv1FpIQdZN-166">
          <mxGeometry relative="1" as="geometry" />
        </mxCell>
        <mxCell id="8hQfOiwvWAjv1FpIQdZN-161" value="Klick [Hinweis bearbeiten]" style="whiteSpace=wrap;html=1;rounded=0;shadow=1;labelBackgroundColor=none;strokeWidth=1;fontFamily=Verdana;fontSize=8;align=center;" vertex="1" parent="1">
          <mxGeometry x="410" y="2810.75" width="120" height="40" as="geometry" />
        </mxCell>
        <mxCell id="8hQfOiwvWAjv1FpIQdZN-162" value="Ja" style="edgeStyle=orthogonalEdgeStyle;rounded=0;orthogonalLoop=1;jettySize=auto;html=1;entryX=0.5;entryY=0;entryDx=0;entryDy=0;strokeColor=default;strokeWidth=1;align=center;verticalAlign=middle;fontFamily=Verdana;fontSize=8;fontColor=default;labelBackgroundColor=none;resizable=0;endArrow=classic;fillColor=none;gradientColor=none;" edge="1" parent="1" source="8hQfOiwvWAjv1FpIQdZN-164" target="8hQfOiwvWAjv1FpIQdZN-161">
          <mxGeometry x="-0.8949" y="10" relative="1" as="geometry">
            <Array as="points">
              <mxPoint x="620" y="2790" />
              <mxPoint x="470" y="2790" />
            </Array>
            <mxPoint as="offset" />
          </mxGeometry>
        </mxCell>
        <mxCell id="8hQfOiwvWAjv1FpIQdZN-163" value="Nein" style="edgeStyle=orthogonalEdgeStyle;rounded=0;orthogonalLoop=1;jettySize=auto;html=1;entryX=0;entryY=0.5;entryDx=0;entryDy=0;strokeColor=default;strokeWidth=1;align=center;verticalAlign=middle;fontFamily=Verdana;fontSize=8;fontColor=default;labelBackgroundColor=none;resizable=0;endArrow=classic;fillColor=none;gradientColor=none;" edge="1" parent="1" source="8hQfOiwvWAjv1FpIQdZN-164" target="8hQfOiwvWAjv1FpIQdZN-159">
          <mxGeometry x="-1" y="10" relative="1" as="geometry">
            <mxPoint as="offset" />
          </mxGeometry>
        </mxCell>
        <mxCell id="8hQfOiwvWAjv1FpIQdZN-164" value="Hinweis &lt;br&gt;bearbeiten?" style="rhombus;whiteSpace=wrap;html=1;rounded=0;shadow=1;labelBackgroundColor=none;strokeWidth=1;fontFamily=Verdana;fontSize=8;align=center;" vertex="1" parent="1">
          <mxGeometry x="570" y="2710" width="100" height="60" as="geometry" />
        </mxCell>
        <mxCell id="8hQfOiwvWAjv1FpIQdZN-165" style="edgeStyle=orthogonalEdgeStyle;rounded=0;orthogonalLoop=1;jettySize=auto;html=1;entryX=0;entryY=0.5;entryDx=0;entryDy=0;strokeColor=default;strokeWidth=1;align=center;verticalAlign=middle;fontFamily=Verdana;fontSize=8;fontColor=default;labelBackgroundColor=none;resizable=0;endArrow=classic;fillColor=none;gradientColor=none;" edge="1" parent="1" source="8hQfOiwvWAjv1FpIQdZN-166" target="8hQfOiwvWAjv1FpIQdZN-159">
          <mxGeometry relative="1" as="geometry">
            <Array as="points">
              <mxPoint x="695" y="2831" />
              <mxPoint x="695" y="2740" />
            </Array>
          </mxGeometry>
        </mxCell>
        <mxCell id="8hQfOiwvWAjv1FpIQdZN-166" value="Eingabe Hinweis" style="whiteSpace=wrap;html=1;rounded=0;shadow=1;labelBackgroundColor=none;strokeWidth=1;fontFamily=Verdana;fontSize=8;align=center;" vertex="1" parent="1">
          <mxGeometry x="560" y="2810.75" width="120" height="40" as="geometry" />
        </mxCell>
      </root>
    </mxGraphModel>
  </diagram>
</mxfile>
